<svg width="85" height="37" viewBox="0 0 85 37" fill="none" xmlns="http://www.w3.org/2000/svg">
<path d="M9.5625 13H0.958008V11.5322L5.2207 6.88281C5.83594 6.19727 6.27246 5.62598 6.53027 5.16895C6.79395 4.70605 6.92578 4.24316 6.92578 3.78027C6.92578 3.1709 6.75293 2.67871 6.40723 2.30371C6.06738 1.92871 5.60742 1.74121 5.02734 1.74121C4.33594 1.74121 3.7998 1.95215 3.41895 2.37402C3.03809 2.7959 2.84766 3.37305 2.84766 4.10547H0.711914C0.711914 3.32617 0.887695 2.62598 1.23926 2.00488C1.59668 1.37793 2.10352 0.891602 2.75977 0.545898C3.42188 0.200195 4.18359 0.0273438 5.04492 0.0273438C6.28711 0.0273438 7.26562 0.34082 7.98047 0.967773C8.70117 1.58887 9.06152 2.4502 9.06152 3.55176C9.06152 4.19043 8.87988 4.86133 8.5166 5.56445C8.15918 6.26172 7.57031 7.05566 6.75 7.94629L3.62109 11.2949H9.5625V13ZM19.5293 7.6123C19.5293 9.45215 19.1836 10.8408 18.4922 11.7783C17.8066 12.71 16.7607 13.1758 15.3545 13.1758C13.9717 13.1758 12.9287 12.7217 12.2256 11.8135C11.5283 10.8994 11.1709 9.54883 11.1533 7.76172V5.54688C11.1533 3.70703 11.4961 2.32715 12.1816 1.40723C12.873 0.487305 13.9248 0.0273438 15.3369 0.0273438C16.7373 0.0273438 17.7803 0.475586 18.4658 1.37207C19.1572 2.26855 19.5117 3.61035 19.5293 5.39746V7.6123ZM17.3936 5.22168C17.3936 4.02051 17.2295 3.1416 16.9014 2.58496C16.5732 2.02246 16.0518 1.74121 15.3369 1.74121C14.6396 1.74121 14.127 2.00781 13.7988 2.54102C13.4707 3.06836 13.2979 3.89453 13.2803 5.01953V7.91992C13.2803 9.11523 13.4473 10.0059 13.7812 10.5918C14.1152 11.1777 14.6396 11.4707 15.3545 11.4707C16.04 11.4707 16.5469 11.2012 16.875 10.6621C17.2031 10.1172 17.376 9.26758 17.3936 8.11328V5.22168ZM26.2441 13V0.203125H30.6299C32.0771 0.203125 33.1787 0.493164 33.9346 1.07324C34.6904 1.65332 35.0684 2.51758 35.0684 3.66602C35.0684 4.25195 34.9102 4.7793 34.5938 5.24805C34.2773 5.7168 33.8145 6.08008 33.2051 6.33789C33.8965 6.52539 34.4297 6.87988 34.8047 7.40137C35.1855 7.91699 35.376 8.53809 35.376 9.26465C35.376 10.4658 34.9893 11.3887 34.2158 12.0332C33.4482 12.6777 32.3467 13 30.9111 13H26.2441ZM28.4678 7.22559V11.2246H30.9375C31.6348 11.2246 32.1797 11.0518 32.5723 10.7061C32.9648 10.3604 33.1611 9.87988 33.1611 9.26465C33.1611 7.93457 32.4814 7.25488 31.1221 7.22559H28.4678ZM28.4678 5.59082H30.6475C31.3389 5.59082 31.8779 5.43555 32.2646 5.125C32.6572 4.80859 32.8535 4.36328 32.8535 3.78906C32.8535 3.15625 32.6719 2.69922 32.3086 2.41797C31.9512 2.13672 31.3916 1.99609 30.6299 1.99609H28.4678V5.59082ZM44.877 5.18652H41.792V13H39.6562V5.18652H36.6064V3.49023H44.877V5.18652ZM1.13379 32.2949C1.72559 31.6328 2.12109 31.0059 2.32031 30.4141C2.52539 29.8164 2.64844 29.0547 2.68945 28.1289L2.8125 24.4902H9.41309V32.2949H10.7314V36.8301H8.60449V34H2.50488V36.8301H0.342773L0.351562 32.2949H1.13379ZM3.63867 32.2949H7.28613V26.3271H4.88672L4.8252 28.1465C4.74316 29.8926 4.34766 31.2754 3.63867 32.2949ZM18.0352 24.4902H20.1621V34H18.0352V27.6543L14.3086 34H12.1816V24.4902H14.3086V30.8359L18.0352 24.4902ZM30.4893 34H28.3535V30.1592H24.6533V34H22.5176V24.4902H24.6533V28.4541H28.3535V24.4902H30.4893V34ZM38.4521 34C38.3584 33.8184 38.2764 33.5225 38.2061 33.1123C37.5264 33.8213 36.6943 34.1758 35.71 34.1758C34.7549 34.1758 33.9756 33.9033 33.3721 33.3584C32.7686 32.8135 32.4668 32.1396 32.4668 31.3369C32.4668 30.3232 32.8418 29.5469 33.5918 29.0078C34.3477 28.4629 35.4258 28.1904 36.8262 28.1904H38.1357V27.5664C38.1357 27.0742 37.998 26.6816 37.7227 26.3887C37.4473 26.0898 37.0283 25.9404 36.4658 25.9404C35.9795 25.9404 35.5811 26.0635 35.2705 26.3096C34.96 26.5498 34.8047 26.8574 34.8047 27.2324H32.6689C32.6689 26.7109 32.8418 26.2246 33.1875 25.7734C33.5332 25.3164 34.002 24.959 34.5938 24.7012C35.1914 24.4434 35.8564 24.3145 36.5889 24.3145C37.7021 24.3145 38.5898 24.5957 39.252 25.1582C39.9141 25.7148 40.2539 26.5 40.2715 27.5137V31.8027C40.2715 32.6582 40.3916 33.3408 40.6318 33.8506V34H38.4521ZM36.1055 32.4619C36.5273 32.4619 36.9229 32.3594 37.292 32.1543C37.667 31.9492 37.9482 31.6738 38.1357 31.3281V29.5352H36.9844C36.1934 29.5352 35.5986 29.6729 35.2002 29.9482C34.8018 30.2236 34.6025 30.6133 34.6025 31.1172C34.6025 31.5273 34.7373 31.8555 35.0068 32.1016C35.2822 32.3418 35.6484 32.4619 36.1055 32.4619ZM48.1553 31.3721L50.9678 24.4902H53.6396V34H51.5039V27.707L48.8848 34H47.4346L44.8066 27.6719V34H42.6709V24.4902H45.3604L48.1553 31.3721ZM61.9805 24.4902H64.1074V34H61.9805V27.6543L58.2539 34H56.127V24.4902H58.2539V30.8359L61.9805 24.4902ZM69.7588 30.2383H68.6777V34H66.542V24.4902H68.6777V28.2871H69.6182L72.2461 24.4902H74.8828L71.4463 29.043L75.1729 34H72.3955L69.7588 30.2383ZM82.2832 24.4902H84.4102V34H82.2832V27.6543L78.5566 34H76.4297V24.4902H78.5566V30.8359L82.2832 24.4902Z" fill="white"/>
</svg>
