<svg width="169" height="40" viewBox="0 0 169 40" fill="none" xmlns="http://www.w3.org/2000/svg">
<path d="M22.2885 24.6725H26.3168V30.361H22.2885V38.0514H15.2328V30.361H0.657654L0.340271 25.9176L15.1596 2.50452H22.2885V24.6725ZM7.37152 24.6725H15.2328V12.1237L14.769 12.9293L7.37152 24.6725ZM37.3032 17.153H41.0629C42.8533 17.153 44.1798 16.7054 45.0424 15.8102C45.905 14.915 46.3364 13.7268 46.3364 12.2457C46.3364 10.8134 45.905 9.69853 45.0424 8.901C44.1961 8.10347 43.0242 7.70471 41.5268 7.70471C40.1759 7.70471 39.0447 8.07906 38.1332 8.82776C37.2218 9.56018 36.7661 10.5205 36.7661 11.7086H29.7104C29.7104 9.85315 30.2068 8.19299 31.1996 6.72815C32.2088 5.24703 33.6085 4.09143 35.3989 3.26135C37.2055 2.43127 39.1912 2.01624 41.3559 2.01624C45.1157 2.01624 48.0616 2.91956 50.1938 4.7262C52.3259 6.51656 53.392 8.99052 53.392 12.1481C53.392 13.7757 52.8956 15.2731 51.9028 16.6403C50.9099 18.0074 49.6078 19.0573 47.9965 19.7897C49.9985 20.5058 51.4877 21.58 52.4643 23.0123C53.4571 24.4446 53.9536 26.1373 53.9536 28.0905C53.9536 31.248 52.798 33.7789 50.4868 35.6832C48.1918 37.5875 45.1482 38.5397 41.3559 38.5397C37.8077 38.5397 34.9024 37.6038 32.6401 35.7321C30.394 33.8603 29.2709 31.3864 29.2709 28.3102H36.3266C36.3266 29.6448 36.823 30.7353 37.8159 31.5817C38.825 32.428 40.062 32.8512 41.5268 32.8512C43.2032 32.8512 44.5134 32.4117 45.4575 31.5328C46.4177 30.6377 46.8979 29.4576 46.8979 27.9928C46.8979 24.4446 44.9448 22.6705 41.0385 22.6705H37.3032V17.153ZM62.9135 3.92053L61.937 13.9547H57.9819V0.551392H62.9135V3.92053ZM70.8481 3.92053L69.8959 13.9547H65.9409V0.551392H70.8481V3.92053ZM74.6445 39.5773H72.7036L80.1254 20.278H82.0541L74.6445 39.5773ZM98.7656 38.0514H95.2377V24.4528L91.0263 25.7589V22.8903L98.3871 20.2535H98.7656V38.0514ZM116.515 30.7028C116.515 33.1604 116.006 35.0403 114.989 36.3424C113.971 37.6445 112.482 38.2955 110.521 38.2955C108.584 38.2955 107.103 37.6567 106.078 36.379C105.052 35.1014 104.527 33.2703 104.503 30.8859V27.6144C104.503 25.1323 105.016 23.2483 106.041 21.9625C107.074 20.6767 108.56 20.0338 110.497 20.0338C112.433 20.0338 113.914 20.6726 114.94 21.9503C115.965 23.2198 116.49 25.0468 116.515 27.4313V30.7028ZM112.987 27.1139C112.987 25.6409 112.783 24.5708 112.376 23.9034C111.978 23.228 111.351 22.8903 110.497 22.8903C109.666 22.8903 109.052 23.2117 108.653 23.8546C108.263 24.4894 108.055 25.4863 108.031 26.8453V31.1666C108.031 32.6152 108.226 33.6935 108.617 34.4015C109.015 35.1014 109.65 35.4513 110.521 35.4513C111.384 35.4513 112.006 35.1136 112.389 34.4381C112.771 33.7627 112.97 32.7291 112.987 31.3375V27.1139ZM130.492 25.0021C130.492 25.8647 130.276 26.6297 129.845 27.297C129.413 27.9643 128.819 28.4974 128.062 28.8961C128.925 29.3112 129.609 29.8849 130.113 30.6173C130.618 31.3416 130.87 32.1961 130.87 33.1808C130.87 34.7596 130.333 36.0087 129.259 36.9283C128.185 37.8398 126.724 38.2955 124.876 38.2955C123.029 38.2955 121.564 37.8357 120.482 36.9161C119.4 35.9965 118.858 34.7514 118.858 33.1808C118.858 32.1961 119.111 31.3375 119.615 30.6051C120.12 29.8727 120.799 29.303 121.654 28.8961C120.897 28.4974 120.303 27.9643 119.872 27.297C119.448 26.6297 119.237 25.8647 119.237 25.0021C119.237 23.4884 119.741 22.284 120.75 21.3888C121.76 20.4855 123.131 20.0338 124.864 20.0338C126.589 20.0338 127.957 20.4814 128.966 21.3766C129.983 22.2636 130.492 23.4721 130.492 25.0021ZM127.33 32.9244C127.33 32.1513 127.106 31.5328 126.659 31.069C126.211 30.6051 125.609 30.3732 124.852 30.3732C124.103 30.3732 123.505 30.6051 123.058 31.069C122.61 31.5247 122.386 32.1432 122.386 32.9244C122.386 33.6813 122.606 34.2916 123.045 34.7555C123.485 35.2194 124.095 35.4513 124.876 35.4513C125.641 35.4513 126.24 35.2275 126.671 34.7799C127.11 34.3323 127.33 33.7138 127.33 32.9244ZM126.964 25.173C126.964 24.4812 126.781 23.9279 126.414 23.5128C126.048 23.0896 125.532 22.8781 124.864 22.8781C124.205 22.8781 123.692 23.0815 123.326 23.4884C122.96 23.8953 122.777 24.4568 122.777 25.173C122.777 25.881 122.96 26.4506 123.326 26.882C123.692 27.3133 124.209 27.5289 124.876 27.5289C125.544 27.5289 126.056 27.3133 126.414 26.882C126.781 26.4506 126.964 25.881 126.964 25.173ZM145.128 35.4513C145.779 35.4513 146.308 35.2723 146.715 34.9142C147.122 34.5561 147.333 34.08 147.35 33.486H150.658C150.65 34.3811 150.405 35.2031 149.925 35.9518C149.445 36.6923 148.786 37.2701 147.948 37.6852C147.118 38.0921 146.198 38.2955 145.189 38.2955C143.301 38.2955 141.812 37.6974 140.721 36.5011C139.631 35.2967 139.085 33.6365 139.085 31.5206V31.2887C139.085 29.2542 139.627 27.6307 140.709 26.4181C141.791 25.2055 143.276 24.5992 145.164 24.5992C146.817 24.5992 148.139 25.0712 149.132 26.0153C150.133 26.9511 150.641 28.2003 150.658 29.7628H147.35C147.333 29.0792 147.122 28.5258 146.715 28.1027C146.308 27.6713 145.771 27.4557 145.103 27.4557C144.282 27.4557 143.659 27.7568 143.236 28.359C142.821 28.9531 142.613 29.9215 142.613 31.2643V31.6305C142.613 32.9895 142.821 33.9661 143.236 34.5602C143.651 35.1543 144.282 35.4513 145.128 35.4513ZM160.716 33.8888L164.171 24.8434H168.59V38.0514H165.062V29.9459L161.9 38.0514H159.532L156.432 30.0802V38.0514H152.904V24.8434H157.286L160.716 33.8888Z" fill="white"/>
</svg>
