<svg width="157" height="68" viewBox="0 0 157 68" fill="none" xmlns="http://www.w3.org/2000/svg">
<path d="M27.6162 15.2246L14.0693 47H5.2041L18.7759 17.2168H1.49365V10.7422H27.6162V15.2246ZM48.4844 32.98C46.6748 34.6069 44.6494 35.4204 42.4082 35.4204C39.1211 35.4204 36.5146 34.3081 34.5889 32.0835C32.6631 29.8589 31.7002 26.8872 31.7002 23.1685C31.7002 20.8442 32.2397 18.686 33.3188 16.6938C34.3979 14.7017 35.9087 13.1245 37.8511 11.9624C39.8101 10.8003 41.9683 10.2192 44.3257 10.2192C46.7163 10.2192 48.8745 10.8252 50.8003 12.0371C52.7427 13.2324 54.2534 14.9341 55.3325 17.1421C56.4116 19.3335 56.9678 21.8652 57.001 24.7373V27.9497C57.001 31.9507 56.2124 35.4204 54.6353 38.3589C53.0747 41.2974 50.8418 43.5552 47.9365 45.1323C45.0312 46.7095 41.6445 47.498 37.7764 47.498H37.2534V40.7744L38.8472 40.7495C44.6245 40.4673 47.8369 37.8774 48.4844 32.98ZM44.6743 29.3691C46.5005 29.3691 47.812 28.5806 48.6089 27.0034V23.5171C48.6089 21.1929 48.2188 19.4746 47.4385 18.3623C46.6582 17.25 45.604 16.6938 44.2759 16.6938C43.0972 16.6938 42.1094 17.3247 41.3125 18.5864C40.5156 19.8481 40.1172 21.3755 40.1172 23.1685C40.1172 25.061 40.5239 26.5718 41.3374 27.7007C42.1509 28.813 43.2632 29.3691 44.6743 29.3691ZM78.0186 32.98C76.209 34.6069 74.1836 35.4204 71.9424 35.4204C68.6553 35.4204 66.0488 34.3081 64.123 32.0835C62.1973 29.8589 61.2344 26.8872 61.2344 23.1685C61.2344 20.8442 61.7739 18.686 62.853 16.6938C63.9321 14.7017 65.4429 13.1245 67.3853 11.9624C69.3442 10.8003 71.5024 10.2192 73.8599 10.2192C76.2505 10.2192 78.4087 10.8252 80.3345 12.0371C82.2769 13.2324 83.7876 14.9341 84.8667 17.1421C85.9458 19.3335 86.502 21.8652 86.5352 24.7373V27.9497C86.5352 31.9507 85.7466 35.4204 84.1694 38.3589C82.6089 41.2974 80.376 43.5552 77.4707 45.1323C74.5654 46.7095 71.1787 47.498 67.3105 47.498H66.7876V40.7744L68.3813 40.7495C74.1587 40.4673 77.3711 37.8774 78.0186 32.98ZM74.2085 29.3691C76.0347 29.3691 77.3462 28.5806 78.1431 27.0034V23.5171C78.1431 21.1929 77.7529 19.4746 76.9727 18.3623C76.1924 17.25 75.1382 16.6938 73.8101 16.6938C72.6313 16.6938 71.6436 17.3247 70.8467 18.5864C70.0498 19.8481 69.6514 21.3755 69.6514 23.1685C69.6514 25.061 70.0581 26.5718 70.8716 27.7007C71.6851 28.813 72.7974 29.3691 74.2085 29.3691Z" fill="white"/>
<path d="M5.39893 64.5V57.6318H8.26807C9.20329 57.6318 9.92057 57.7969 10.4199 58.127C10.9193 58.457 11.1689 58.931 11.1689 59.5488C11.1689 59.8662 11.0632 60.1519 10.8516 60.4058C10.6442 60.6554 10.3395 60.848 9.9375 60.9834C10.4284 61.0765 10.8135 61.2606 11.0928 61.5356C11.3763 61.8065 11.5181 62.1408 11.5181 62.5386C11.5181 63.1776 11.2769 63.6642 10.7944 63.9985C10.3162 64.3328 9.62012 64.5 8.70605 64.5H5.39893ZM7.2334 61.6499V63.0337H8.7124C9.35986 63.0337 9.68359 62.8073 9.68359 62.3545C9.68359 61.8932 9.37467 61.6584 8.75684 61.6499H7.2334ZM7.2334 60.4185H8.36963C9.01286 60.41 9.33447 60.2026 9.33447 59.7964C9.33447 59.5467 9.24561 59.369 9.06787 59.2632C8.89437 59.1574 8.62777 59.1045 8.26807 59.1045H7.2334V60.4185ZM22.0615 61.1294C22.0615 62.1873 21.8203 63.0358 21.3379 63.6748C20.8597 64.3096 20.2122 64.627 19.3955 64.627C18.7015 64.627 18.1408 64.3857 17.7134 63.9033V67.1406H15.8789V57.6318H17.5801L17.6436 58.3047C18.0879 57.7715 18.6676 57.5049 19.3828 57.5049C20.2292 57.5049 20.8872 57.818 21.3569 58.4443C21.8267 59.0706 22.0615 59.9339 22.0615 61.0342V61.1294ZM20.2271 60.9961C20.2271 60.3571 20.1128 59.8641 19.8843 59.5171C19.66 59.1701 19.332 58.9966 18.9004 58.9966C18.3249 58.9966 17.9292 59.2166 17.7134 59.6567V62.4688C17.9377 62.9215 18.3376 63.1479 18.9131 63.1479C19.7891 63.1479 20.2271 62.4307 20.2271 60.9961ZM27.1841 64.5C27.0994 64.335 27.0381 64.1297 27 63.8843C26.5557 64.3794 25.978 64.627 25.2671 64.627C24.5942 64.627 24.0356 64.4323 23.5913 64.043C23.1512 63.6536 22.9312 63.1628 22.9312 62.5703C22.9312 61.8424 23.1999 61.2839 23.7373 60.8945C24.279 60.5052 25.0597 60.3084 26.0796 60.3042H26.9238V59.9106C26.9238 59.5933 26.8413 59.3394 26.6763 59.1489C26.5155 58.9585 26.2594 58.8633 25.9082 58.8633C25.5993 58.8633 25.356 58.9373 25.1782 59.0854C25.0047 59.2336 24.918 59.4367 24.918 59.6948H23.0835C23.0835 59.297 23.2062 58.9289 23.4517 58.5903C23.6971 58.2518 24.0441 57.9873 24.4927 57.7969C24.9412 57.6022 25.4448 57.5049 26.0034 57.5049C26.8498 57.5049 27.5205 57.7186 28.0156 58.146C28.515 58.5692 28.7646 59.1659 28.7646 59.936V62.9131C28.7689 63.5648 28.8599 64.0578 29.0376 64.3921V64.5H27.1841ZM25.667 63.2241C25.9378 63.2241 26.1875 63.1649 26.416 63.0464C26.6445 62.9237 26.8138 62.7607 26.9238 62.5576V61.377H26.2383C25.32 61.377 24.8312 61.6943 24.772 62.3291L24.7656 62.437C24.7656 62.6655 24.846 62.8538 25.0068 63.002C25.1676 63.1501 25.3877 63.2241 25.667 63.2241ZM33.0303 63.1479C33.3688 63.1479 33.6439 63.0549 33.8555 62.8687C34.0671 62.6825 34.1771 62.4349 34.1855 62.126H35.9058C35.9015 62.5915 35.7746 63.0189 35.5249 63.4082C35.2752 63.7933 34.9325 64.0938 34.4966 64.3096C34.0649 64.5212 33.5868 64.627 33.062 64.627C32.0802 64.627 31.3058 64.3159 30.7388 63.6938C30.1717 63.0675 29.8882 62.2043 29.8882 61.104V60.9834C29.8882 59.9255 30.1696 59.0812 30.7324 58.4507C31.2952 57.8201 32.0675 57.5049 33.0493 57.5049C33.9084 57.5049 34.596 57.7503 35.1123 58.2412C35.6328 58.7279 35.8973 59.3774 35.9058 60.1899H34.1855C34.1771 59.8345 34.0671 59.5467 33.8555 59.3267C33.6439 59.1024 33.3646 58.9902 33.0176 58.9902C32.5902 58.9902 32.2664 59.1468 32.0464 59.46C31.8306 59.7689 31.7227 60.2725 31.7227 60.9707V61.1611C31.7227 61.8678 31.8306 62.3757 32.0464 62.6846C32.2622 62.9935 32.5902 63.1479 33.0303 63.1479ZM39.8096 63.1479C40.1481 63.1479 40.4232 63.0549 40.6348 62.8687C40.8464 62.6825 40.9564 62.4349 40.9648 62.126H42.6851C42.6808 62.5915 42.5539 63.0189 42.3042 63.4082C42.0545 63.7933 41.7118 64.0938 41.2759 64.3096C40.8442 64.5212 40.366 64.627 39.8413 64.627C38.8595 64.627 38.0851 64.3159 37.5181 63.6938C36.951 63.0675 36.6675 62.2043 36.6675 61.104V60.9834C36.6675 59.9255 36.9489 59.0812 37.5117 58.4507C38.0745 57.8201 38.8468 57.5049 39.8286 57.5049C40.6877 57.5049 41.3753 57.7503 41.8916 58.2412C42.4121 58.7279 42.6766 59.3774 42.6851 60.1899H40.9648C40.9564 59.8345 40.8464 59.5467 40.6348 59.3267C40.4232 59.1024 40.1439 58.9902 39.7969 58.9902C39.3695 58.9902 39.0457 59.1468 38.8257 59.46C38.6099 59.7689 38.502 60.2725 38.502 60.9707V61.1611C38.502 61.8678 38.6099 62.3757 38.8257 62.6846C39.0415 62.9935 39.3695 63.1479 39.8096 63.1479ZM49.915 61.1294C49.915 62.1873 49.6738 63.0358 49.1914 63.6748C48.7132 64.3096 48.0658 64.627 47.249 64.627C46.555 64.627 45.9943 64.3857 45.5669 63.9033V67.1406H43.7324V57.6318H45.4336L45.4971 58.3047C45.9414 57.7715 46.5212 57.5049 47.2363 57.5049C48.0827 57.5049 48.7407 57.818 49.2104 58.4443C49.6802 59.0706 49.915 59.9339 49.915 61.0342V61.1294ZM48.0806 60.9961C48.0806 60.3571 47.9663 59.8641 47.7378 59.5171C47.5135 59.1701 47.1855 58.9966 46.7539 58.9966C46.1784 58.9966 45.7827 59.2166 45.5669 59.6567V62.4688C45.7912 62.9215 46.1911 63.1479 46.7666 63.1479C47.6426 63.1479 48.0806 62.4307 48.0806 60.9961ZM50.772 61.0024C50.772 60.3211 50.9032 59.7139 51.1655 59.1807C51.4279 58.6475 51.8045 58.2349 52.2954 57.9429C52.7905 57.6509 53.3639 57.5049 54.0156 57.5049C54.9424 57.5049 55.6978 57.7884 56.2817 58.3555C56.87 58.9225 57.1979 59.6927 57.2656 60.666L57.2783 61.1357C57.2783 62.1895 56.9842 63.0358 56.396 63.6748C55.8078 64.3096 55.0186 64.627 54.0283 64.627C53.0381 64.627 52.2467 64.3096 51.6543 63.6748C51.0661 63.04 50.772 62.1768 50.772 61.085V61.0024ZM52.6064 61.1357C52.6064 61.7874 52.7292 62.2868 52.9746 62.6338C53.2201 62.9766 53.5713 63.1479 54.0283 63.1479C54.4727 63.1479 54.8197 62.9787 55.0693 62.6401C55.319 62.2974 55.4438 61.7515 55.4438 61.0024C55.4438 60.3634 55.319 59.8683 55.0693 59.5171C54.8197 59.1659 54.4684 58.9902 54.0156 58.9902C53.5671 58.9902 53.2201 59.1659 52.9746 59.5171C52.7292 59.8641 52.6064 60.4036 52.6064 61.1357ZM64.1973 64.5H62.3628V62.3418C62.02 62.4053 61.7005 62.437 61.4043 62.437C60.3675 62.437 59.5868 62.217 59.062 61.7769C58.5373 61.3368 58.2707 60.6935 58.2622 59.8472V57.6318H60.0967V59.8472C60.1009 60.245 60.1982 60.5306 60.3887 60.7041C60.5791 60.8734 60.9176 60.958 61.4043 60.958C61.709 60.958 62.0285 60.922 62.3628 60.8501V57.6318H64.1973V64.5ZM68.2979 61.9673H67.5615V64.5H65.7271V57.6318H67.5615V60.2153H68.2153L69.7134 57.6318H72.0303L69.7832 60.9009L72.2397 64.5H69.7959L68.2979 61.9673ZM75.4961 61.9038L76.7656 57.6318H78.7334L75.9722 65.5664L75.8198 65.9282C75.4093 66.8254 74.7323 67.2739 73.7886 67.2739C73.522 67.2739 73.2511 67.2337 72.9761 67.1533V65.7632L73.2554 65.7695C73.6024 65.7695 73.8605 65.7166 74.0298 65.6108C74.2033 65.505 74.3387 65.3294 74.436 65.084L74.6519 64.519L72.2461 57.6318H74.2202L75.4961 61.9038ZM88.6484 64.5H86.8076V61.8594H84.5288V64.5H82.6943V57.6318H84.5288V60.3867H86.8076V57.6318H88.6484V64.5ZM94.0503 64.5C93.9657 64.335 93.9043 64.1297 93.8662 63.8843C93.4219 64.3794 92.8442 64.627 92.1333 64.627C91.4604 64.627 90.9019 64.4323 90.4575 64.043C90.0174 63.6536 89.7974 63.1628 89.7974 62.5703C89.7974 61.8424 90.0661 61.2839 90.6035 60.8945C91.1452 60.5052 91.9259 60.3084 92.9458 60.3042H93.79V59.9106C93.79 59.5933 93.7075 59.3394 93.5425 59.1489C93.3817 58.9585 93.1257 58.8633 92.7744 58.8633C92.4655 58.8633 92.2222 58.9373 92.0444 59.0854C91.8709 59.2336 91.7842 59.4367 91.7842 59.6948H89.9497C89.9497 59.297 90.0724 58.9289 90.3179 58.5903C90.5633 58.2518 90.9103 57.9873 91.3589 57.7969C91.8075 57.6022 92.311 57.5049 92.8696 57.5049C93.716 57.5049 94.3867 57.7186 94.8818 58.146C95.3812 58.5692 95.6309 59.1659 95.6309 59.936V62.9131C95.6351 63.5648 95.7261 64.0578 95.9038 64.3921V64.5H94.0503ZM92.5332 63.2241C92.804 63.2241 93.0537 63.1649 93.2822 63.0464C93.5107 62.9237 93.68 62.7607 93.79 62.5576V61.377H93.1045C92.1862 61.377 91.6974 61.6943 91.6382 62.3291L91.6318 62.437C91.6318 62.6655 91.7122 62.8538 91.873 63.002C92.0339 63.1501 92.2539 63.2241 92.5332 63.2241ZM104.657 64.5H102.823V57.4287L100.633 58.1079V56.6162L104.46 55.2451H104.657V64.5ZM114.001 64.5H107.666V63.2432L110.656 60.0566C111.066 59.6081 111.369 59.2166 111.563 58.8823C111.762 58.548 111.862 58.2306 111.862 57.9302C111.862 57.5197 111.758 57.1981 111.551 56.9653C111.343 56.7284 111.047 56.6099 110.662 56.6099C110.247 56.6099 109.919 56.7537 109.678 57.0415C109.441 57.325 109.323 57.6995 109.323 58.165H107.482C107.482 57.6022 107.615 57.0881 107.882 56.6226C108.153 56.1571 108.534 55.7931 109.024 55.5308C109.515 55.2642 110.072 55.1309 110.694 55.1309C111.646 55.1309 112.384 55.3594 112.909 55.8164C113.438 56.2734 113.703 56.9188 113.703 57.7524C113.703 58.2095 113.584 58.675 113.347 59.1489C113.11 59.6229 112.704 60.1751 112.128 60.8057L110.027 63.021H114.001V64.5ZM122.627 62.3354L124.424 57.6318H126.722V64.5H124.887V60.2852L123.243 64.5H122.012L120.399 60.355V64.5H118.565V57.6318H120.844L122.627 62.3354ZM131.482 64.627C130.475 64.627 129.654 64.318 129.02 63.7002C128.389 63.0824 128.074 62.2593 128.074 61.231V61.0532C128.074 60.3634 128.207 59.7477 128.474 59.2061C128.74 58.6602 129.117 58.2412 129.604 57.9492C130.094 57.653 130.653 57.5049 131.279 57.5049C132.219 57.5049 132.957 57.8011 133.495 58.3936C134.036 58.986 134.307 59.826 134.307 60.9136V61.6626H129.934C129.993 62.1112 130.171 62.4709 130.467 62.7417C130.767 63.0125 131.146 63.1479 131.603 63.1479C132.31 63.1479 132.862 62.8919 133.26 62.3799L134.161 63.3892C133.886 63.7785 133.514 64.0832 133.044 64.3032C132.574 64.519 132.054 64.627 131.482 64.627ZM131.273 58.9902C130.909 58.9902 130.613 59.113 130.384 59.3584C130.16 59.6038 130.016 59.9551 129.953 60.4121H132.504V60.2661C132.496 59.8599 132.386 59.5467 132.174 59.3267C131.963 59.1024 131.662 58.9902 131.273 58.9902ZM138.211 63.1479C138.549 63.1479 138.825 63.0549 139.036 62.8687C139.248 62.6825 139.358 62.4349 139.366 62.126H141.086C141.082 62.5915 140.955 63.0189 140.706 63.4082C140.456 63.7933 140.113 64.0938 139.677 64.3096C139.246 64.5212 138.767 64.627 138.243 64.627C137.261 64.627 136.486 64.3159 135.919 63.6938C135.352 63.0675 135.069 62.2043 135.069 61.104V60.9834C135.069 59.9255 135.35 59.0812 135.913 58.4507C136.476 57.8201 137.248 57.5049 138.23 57.5049C139.089 57.5049 139.777 57.7503 140.293 58.2412C140.813 58.7279 141.078 59.3774 141.086 60.1899H139.366C139.358 59.8345 139.248 59.5467 139.036 59.3267C138.825 59.1024 138.545 58.9902 138.198 58.9902C137.771 58.9902 137.447 59.1468 137.227 59.46C137.011 59.7689 136.903 60.2725 136.903 60.9707V61.1611C136.903 61.8678 137.011 62.3757 137.227 62.6846C137.443 62.9935 137.771 63.1479 138.211 63.1479Z" fill="white"/>
<path d="M95.7427 41.9602V46.97H92.813V32.7512H98.3599C99.4276 32.7512 100.365 32.9465 101.172 33.3372C101.986 33.7278 102.611 34.2844 103.047 35.0071C103.484 35.7232 103.702 36.5403 103.702 37.4583C103.702 38.8515 103.223 39.9517 102.266 40.759C101.316 41.5598 99.9972 41.9602 98.311 41.9602H95.7427ZM95.7427 39.5872H98.3599C99.1346 39.5872 99.7238 39.4049 100.127 39.0403C100.538 38.6757 100.743 38.1549 100.743 37.4778C100.743 36.7812 100.538 36.218 100.127 35.7883C99.7173 35.3586 99.1509 35.1373 98.4282 35.1243H95.7427V39.5872ZM111.055 39.47L113.643 32.7512L116.807 32.7512L111.836 44.4797L111.436 45.2512C110.7 46.5338 109.574 47.175 108.057 47.175L107.032 47.136L107.002 44.7825C107.159 44.8085 107.413 44.8215 107.764 44.8215C108.174 44.8215 108.503 44.7499 108.75 44.6067C109.004 44.4635 109.216 44.1998 109.385 43.8157L109.747 42.8879L104.756 32.7512H107.911L111.055 39.47ZM127.637 35.1243H121.29V37.8782H123.575C125.248 37.8782 126.573 38.2851 127.549 39.0989C128.532 39.9062 129.024 40.9967 129.024 42.3704C129.024 43.7506 128.536 44.8606 127.559 45.7004C126.589 46.5338 125.297 46.9569 123.682 46.97H118.331V32.7512H127.637V35.1243ZM121.29 40.2415V44.6165H123.624C124.372 44.6165 124.968 44.4114 125.411 44.0012C125.86 43.5911 126.084 43.0409 126.084 42.3508C126.084 41.7063 125.87 41.1985 125.44 40.8274C125.017 40.4498 124.434 40.2545 123.692 40.2415H121.29ZM130.86 45.5833C130.86 45.134 131.01 44.7694 131.309 44.4895C131.615 44.2096 131.996 44.0696 132.452 44.0696C132.914 44.0696 133.295 44.2096 133.594 44.4895C133.9 44.7694 134.053 45.134 134.053 45.5833C134.053 46.026 133.903 46.3873 133.604 46.6672C133.305 46.9407 132.92 47.0774 132.452 47.0774C131.989 47.0774 131.609 46.9407 131.309 46.6672C131.01 46.3873 130.86 46.026 130.86 45.5833ZM154.952 40.9055L141.69 40.9055V38.9915L154.952 38.9915V40.9055Z" fill="white"/>
</svg>
