<svg width="90" height="15" viewBox="0 0 90 15" fill="none" xmlns="http://www.w3.org/2000/svg">
<path d="M8.46387 11.0205H3.50684L2.46973 14H0.158203L4.99219 1.20312H6.9873L11.8301 14H9.50977L8.46387 11.0205ZM4.13086 9.22754H7.83984L5.98535 3.91895L4.13086 9.22754ZM14.6426 4.49023L14.7041 5.58887C15.4072 4.73926 16.3301 4.31445 17.4727 4.31445C19.4531 4.31445 20.4609 5.44824 20.4961 7.71582V14H18.3604V7.83887C18.3604 7.23535 18.2285 6.79004 17.9648 6.50293C17.707 6.20996 17.2822 6.06348 16.6904 6.06348C15.8291 6.06348 15.1875 6.45312 14.7656 7.23242V14H12.6299V4.49023H14.6426ZM22.2803 9.1748C22.2803 7.70996 22.6201 6.53516 23.2998 5.65039C23.9795 4.75977 24.8906 4.31445 26.0332 4.31445C27.041 4.31445 27.8555 4.66602 28.4766 5.36914V0.5H30.6123V14H28.6787L28.5732 13.0156C27.9346 13.7891 27.082 14.1758 26.0156 14.1758C24.9023 14.1758 24 13.7275 23.3086 12.8311C22.623 11.9346 22.2803 10.7158 22.2803 9.1748ZM24.416 9.35938C24.416 10.3262 24.6006 11.082 24.9697 11.627C25.3447 12.166 25.875 12.4355 26.5605 12.4355C27.4336 12.4355 28.0723 12.0459 28.4766 11.2666V7.20605C28.084 6.44434 27.4512 6.06348 26.5781 6.06348C25.8867 6.06348 25.3535 6.33887 24.9785 6.88965C24.6035 7.43457 24.416 8.25781 24.416 9.35938ZM37.8193 6.44141C37.5381 6.39453 37.248 6.37109 36.9492 6.37109C35.9707 6.37109 35.3115 6.74609 34.9717 7.49609V14H32.8359V4.49023H34.875L34.9277 5.55371C35.4434 4.72754 36.1582 4.31445 37.0723 4.31445C37.377 4.31445 37.6289 4.35547 37.8281 4.4375L37.8193 6.44141ZM38.4521 9.15723C38.4521 8.22559 38.6367 7.3877 39.0059 6.64355C39.375 5.89355 39.8936 5.31934 40.5615 4.9209C41.2295 4.5166 41.9971 4.31445 42.8643 4.31445C44.1475 4.31445 45.1875 4.72754 45.9844 5.55371C46.7871 6.37988 47.2207 7.47559 47.2852 8.84082L47.2939 9.3418C47.2939 10.2793 47.1123 11.1172 46.749 11.8555C46.3916 12.5938 45.876 13.165 45.2021 13.5693C44.5342 13.9736 43.7607 14.1758 42.8818 14.1758C41.54 14.1758 40.4648 13.7305 39.6562 12.8398C38.8535 11.9434 38.4521 10.751 38.4521 9.2627V9.15723ZM40.5879 9.3418C40.5879 10.3203 40.79 11.0879 41.1943 11.6445C41.5986 12.1953 42.1611 12.4707 42.8818 12.4707C43.6025 12.4707 44.1621 12.1895 44.5605 11.627C44.9648 11.0645 45.167 10.2412 45.167 9.15723C45.167 8.19629 44.959 7.43457 44.543 6.87207C44.1328 6.30957 43.5732 6.02832 42.8643 6.02832C42.167 6.02832 41.6133 6.30664 41.2031 6.86328C40.793 7.41406 40.5879 8.24023 40.5879 9.3418ZM51.3721 14H49.2363V4.49023H51.3721V14ZM49.1045 2.02051C49.1045 1.69238 49.207 1.41992 49.4121 1.20312C49.623 0.986328 49.9219 0.87793 50.3086 0.87793C50.6953 0.87793 50.9941 0.986328 51.2051 1.20312C51.416 1.41992 51.5215 1.69238 51.5215 2.02051C51.5215 2.34277 51.416 2.6123 51.2051 2.8291C50.9941 3.04004 50.6953 3.14551 50.3086 3.14551C49.9219 3.14551 49.623 3.04004 49.4121 2.8291C49.207 2.6123 49.1045 2.34277 49.1045 2.02051ZM53.3057 9.1748C53.3057 7.70996 53.6455 6.53516 54.3252 5.65039C55.0049 4.75977 55.916 4.31445 57.0586 4.31445C58.0664 4.31445 58.8809 4.66602 59.502 5.36914V0.5H61.6377V14H59.7041L59.5986 13.0156C58.96 13.7891 58.1074 14.1758 57.041 14.1758C55.9277 14.1758 55.0254 13.7275 54.334 12.8311C53.6484 11.9346 53.3057 10.7158 53.3057 9.1748ZM55.4414 9.35938C55.4414 10.3262 55.626 11.082 55.9951 11.627C56.3701 12.166 56.9004 12.4355 57.5859 12.4355C58.459 12.4355 59.0977 12.0459 59.502 11.2666V7.20605C59.1094 6.44434 58.4766 6.06348 57.6035 6.06348C56.9121 6.06348 56.3789 6.33887 56.0039 6.88965C55.6289 7.43457 55.4414 8.25781 55.4414 9.35938ZM77.2734 2.99609H73.2832V14H71.0771V2.99609H67.1221V1.20312H77.2734V2.99609ZM83.6104 11.2139L86.8623 1.20312H89.3057L84.7002 14H82.5469L77.959 1.20312H80.3936L83.6104 11.2139Z" fill="white"/>
</svg>
