<svg width="22" height="24" viewBox="0 0 22 24" fill="none" xmlns="http://www.w3.org/2000/svg">
<path d="M20.7235 19.6831L15.1526 14.112L19.127 11.8164C19.4376 11.637 19.6183 11.2961 19.5924 10.9384C19.5666 10.5806 19.3387 10.2691 19.0056 10.1363L1.28299 3.06671C0.935567 2.92797 0.538853 3.00969 0.274283 3.27416C0.00971242 3.53883 -0.0720051 3.93545 0.0666421 4.28287L7.1351 22.0076C7.268 22.3407 7.57951 22.5687 7.9373 22.5945C8.29508 22.6205 8.63609 22.4397 8.81536 22.1291L11.1108 18.1547L16.6813 23.7257C16.8568 23.9013 17.0951 24 17.3433 24C17.5916 24 17.8297 23.9013 18.0052 23.7257L20.7236 21.007C21.0891 20.6414 21.0891 20.0487 20.7235 19.6831Z" fill="#CC3330"/>
<path d="M21.7235 16.6831L16.1526 11.112L20.127 8.81638C20.4376 8.63702 20.6183 8.2961 20.5924 7.93841C20.5666 7.58062 20.3387 7.26911 20.0056 7.13631L2.28299 0.0667102C1.93557 -0.0720313 1.53885 0.00968707 1.27428 0.274163C1.00971 0.538828 0.927995 0.935447 1.06664 1.28287L8.1351 19.0076C8.268 19.3407 8.57951 19.5687 8.9373 19.5945C9.29508 19.6205 9.63609 19.4397 9.81536 19.1291L12.1108 15.1547L17.6813 20.7257C17.8568 20.9013 18.0951 21 18.3433 21C18.5916 21 18.8297 20.9013 19.0052 20.7257L21.7236 18.007C22.0891 17.6414 22.0891 17.0487 21.7235 16.6831Z" fill="white"/>
</svg>
