<svg width="179" height="43" viewBox="0 0 179 43" fill="none" xmlns="http://www.w3.org/2000/svg">
<rect y="4" width="179" height="39" rx="19.5" fill="#CC3330"/>
<rect width="179" height="39" rx="19.5" fill="#F88F38"/>
<path d="M67.8403 19.9326H66.6577V24H64.6069V14.0469H66.6577V18.0322H67.5942L70.0278 14.0469H72.5298L69.4604 18.7568L72.8511 24H70.4038L67.8403 19.9326ZM77.3765 18.75L79.188 14.0469H81.4028L77.9233 22.2568L77.6431 22.7969C77.1281 23.6947 76.3397 24.1436 75.2778 24.1436L74.5601 24.1162L74.5396 22.4688C74.6489 22.487 74.8267 22.4961 75.0728 22.4961C75.3599 22.4961 75.59 22.446 75.7632 22.3457C75.9409 22.2454 76.089 22.0609 76.2075 21.792L76.4604 21.1426L72.9673 14.0469H75.1753L77.3765 18.75ZM90.5972 24H88.5396V15.708H84.5542V24H82.5034V14.0469H90.5972V24ZM98.3696 14.0469H100.427V24H98.3696V17.3896L94.3843 24H92.3335V14.0469H94.3843V20.6709L98.3696 14.0469ZM109.492 15.708H106.443V24H104.392V15.708H101.384V14.0469H109.492V15.708ZM112.828 17.6357H114.427C115.598 17.6357 116.526 17.9206 117.209 18.4902C117.898 19.0553 118.242 19.8187 118.242 20.7803C118.242 21.7464 117.9 22.5234 117.216 23.1113C116.537 23.6947 115.633 23.9909 114.502 24H110.763V14.0469H112.828V17.6357ZM112.828 19.29V22.3525H114.461C114.986 22.3525 115.403 22.209 115.712 21.9219C116.027 21.6348 116.184 21.2497 116.184 20.7666C116.184 20.3154 116.034 19.96 115.733 19.7002C115.437 19.4359 115.029 19.2992 114.509 19.29H112.828Z" fill="white"/>
</svg>
