<svg width="93" height="35" viewBox="0 0 93 35" fill="none" xmlns="http://www.w3.org/2000/svg">
<path d="M7.6748 8.57715H2.52441V14H0.300781V1.20312H8.43066V2.99609H2.52441V6.80176H7.6748V8.57715ZM15.5586 13.0684C14.9316 13.8066 14.041 14.1758 12.8867 14.1758C11.8555 14.1758 11.0732 13.874 10.54 13.2705C10.0127 12.667 9.74902 11.7939 9.74902 10.6514V4.49023H11.8848V10.625C11.8848 11.832 12.3857 12.4355 13.3877 12.4355C14.4248 12.4355 15.125 12.0635 15.4883 11.3193V4.49023H17.624V14H15.6113L15.5586 13.0684ZM22.0713 14H19.9355V0.5H22.0713V14ZM26.6768 14H24.541V0.5H26.6768V14ZM43.8594 14H41.6445V8.31348H35.9229V14H33.6992V1.20312H35.9229V6.5293H41.6445V1.20312H43.8594V14ZM46.4961 14V1.20312H50.2754C51.4062 1.20312 52.4082 1.45508 53.2812 1.95898C54.1602 2.46289 54.8398 3.17773 55.3203 4.10352C55.8008 5.0293 56.041 6.08984 56.041 7.28516V7.92676C56.041 9.13965 55.7979 10.2061 55.3115 11.126C54.8311 12.0459 54.1426 12.7549 53.2461 13.2529C52.3555 13.751 51.333 14 50.1787 14H46.4961ZM48.7197 2.99609V12.2246H50.1699C51.3359 12.2246 52.2295 11.8613 52.8506 11.1348C53.4775 10.4023 53.7969 9.35352 53.8086 7.98828V7.27637C53.8086 5.8877 53.5068 4.82715 52.9033 4.09473C52.2998 3.3623 51.4238 2.99609 50.2754 2.99609H48.7197ZM64.9619 12.2246H70.7715V14H62.7383V1.20312H64.9619V12.2246ZM79.9561 8.28711H74.7002V12.2246H80.8438V14H72.4766V1.20312H80.7822V2.99609H74.7002V6.5293H79.9561V8.28711ZM82.6543 14V1.20312H86.4336C87.5645 1.20312 88.5664 1.45508 89.4395 1.95898C90.3184 2.46289 90.998 3.17773 91.4785 4.10352C91.959 5.0293 92.1992 6.08984 92.1992 7.28516V7.92676C92.1992 9.13965 91.9561 10.2061 91.4697 11.126C90.9893 12.0459 90.3008 12.7549 89.4043 13.2529C88.5137 13.751 87.4912 14 86.3369 14H82.6543ZM84.8779 2.99609V12.2246H86.3281C87.4941 12.2246 88.3877 11.8613 89.0088 11.1348C89.6357 10.4023 89.9551 9.35352 89.9668 7.98828V7.27637C89.9668 5.8877 89.665 4.82715 89.0615 4.09473C88.458 3.3623 87.582 2.99609 86.4336 2.99609H84.8779ZM6.03125 25.4902H8.1582V35H6.03125V28.6543L2.30469 35H0.177734V25.4902H2.30469V31.8359L6.03125 25.4902ZM25.2793 35H23.0645V29.3135H17.3428V35H15.1191V22.2031H17.3428V27.5293H23.0645V22.2031H25.2793V35ZM27.916 35V22.2031H31.6953C32.8262 22.2031 33.8281 22.4551 34.7012 22.959C35.5801 23.4629 36.2598 24.1777 36.7402 25.1035C37.2207 26.0293 37.4609 27.0898 37.4609 28.2852V28.9268C37.4609 30.1396 37.2178 31.2061 36.7314 32.126C36.251 33.0459 35.5625 33.7549 34.666 34.2529C33.7754 34.751 32.7529 35 31.5986 35H27.916ZM30.1396 23.9961V33.2246H31.5898C32.7559 33.2246 33.6494 32.8613 34.2705 32.1348C34.8975 31.4023 35.2168 30.3535 35.2285 28.9883V28.2764C35.2285 26.8877 34.9268 25.8271 34.3232 25.0947C33.7197 24.3623 32.8438 23.9961 31.6953 23.9961H30.1396ZM44.3779 30.0693H41.8994V35H39.6758V22.2031H44.1758C45.6523 22.2031 46.792 22.5342 47.5947 23.1963C48.3975 23.8584 48.7988 24.8164 48.7988 26.0703C48.7988 26.9258 48.5908 27.6436 48.1748 28.2236C47.7646 28.7979 47.1904 29.2402 46.4521 29.5508L49.3262 34.8857V35H46.9443L44.3779 30.0693ZM41.8994 28.2852H44.1846C44.9346 28.2852 45.5205 28.0977 45.9424 27.7227C46.3643 27.3418 46.5752 26.8232 46.5752 26.167C46.5752 25.4814 46.3789 24.9512 45.9863 24.5762C45.5996 24.2012 45.0195 24.0078 44.2461 23.9961H41.8994V28.2852Z" fill="white"/>
</svg>
