<svg width="136" height="36" viewBox="0 0 136 36" fill="none" xmlns="http://www.w3.org/2000/svg">
<g clip-path="url(#clip0)">
<path fill-rule="evenodd" clip-rule="evenodd" d="M79.7982 29.102C79.6925 30.1738 80.4728 31.0421 81.5437 31.0421C82.6145 31.0421 83.4893 30.1728 83.6763 29.1039L84.0198 27.1619H81.9276C80.8577 27.1619 79.9035 28.0309 79.7982 29.102Z" fill="white"/>
<path fill-rule="evenodd" clip-rule="evenodd" d="M17.4146 35.9851C7.34129 35.9851 0.000149846 27.932 0.994483 17.9925C1.98579 8.05903 10.962 0 21.0262 0H40.7074L37.4765 18.0104C35.7176 27.9231 27.4879 35.9851 17.4146 35.9851ZM21.803 11.0289L21.2922 13.1601V13.169C22.845 13.2042 24.3237 13.8322 25.4176 14.9211C26.5873 16.2046 26.9681 17.9925 26.5873 20.2431C25.6353 25.8665 21.0021 28.4454 15.7826 28.3021H11.7629L12.6696 23.3563H17.1366C18.9499 23.3563 20.18 22.3683 20.4611 20.6998C20.9447 17.8463 18.1641 17.4702 16.0485 17.7687C15.9814 17.7801 15.9124 17.7746 15.8479 17.7527C15.7834 17.7308 15.7256 17.6932 15.6798 17.6433C15.6361 17.5914 15.606 17.5297 15.5923 17.4635C15.5786 17.3974 15.5816 17.3289 15.6012 17.2642L17.6534 6.07113C17.6867 5.95447 17.7569 5.85135 17.8536 5.77674C17.9504 5.70214 18.0687 5.65992 18.1913 5.65624H29.8604L28.8631 11.0289H21.803Z" fill="white"/>
<path d="M66.297 5.6054C66.2971 5.56411 66.2886 5.52324 66.2719 5.48538C66.2552 5.44751 66.2308 5.41348 66.2001 5.38543C66.1694 5.35737 66.1332 5.33591 66.0937 5.3224C66.0542 5.30888 66.0122 5.30361 65.9706 5.30692H61.4371C61.3435 5.30964 61.2527 5.33934 61.1759 5.39237C61.0991 5.4454 61.0397 5.51945 61.005 5.6054L54.099 22.7294C54.0732 22.7794 54.061 22.8351 54.0638 22.8912C54.0665 22.9473 54.084 23.0016 54.1145 23.049C54.145 23.0963 54.1875 23.135 54.2378 23.1611C54.2881 23.1872 54.3445 23.1999 54.4012 23.198H58.5267C58.62 23.1881 58.7084 23.1515 58.7809 23.0926C58.8534 23.0338 58.9069 22.9552 58.9347 22.8667L62.3106 12.8645L62.4677 22.8667C62.4631 22.9104 62.4683 22.9546 62.483 22.9961C62.4977 23.0376 62.5215 23.0753 62.5527 23.1067C62.5839 23.1381 62.6217 23.1623 62.6634 23.1775C62.7052 23.1928 62.7498 23.1987 62.7941 23.195H66.6778C66.8002 23.1904 66.9162 23.1395 67.0017 23.0528C67.0872 22.9662 67.1357 22.8504 67.1372 22.7294L66.294 5.6054H66.297ZM49.5354 16.2941H45.4946C45.4479 16.2867 45.4034 16.2696 45.364 16.2438C45.3246 16.218 45.2913 16.1841 45.2664 16.1445C45.2415 16.1048 45.2255 16.0604 45.2194 16.0141C45.2134 15.9678 45.2176 15.9208 45.2316 15.8762L45.8512 12.4496C45.8586 12.349 45.9018 12.2543 45.9731 12.1822C46.0445 12.1101 46.1394 12.0652 46.2411 12.0556H50.4148C50.4148 12.0049 50.4148 11.9541 50.4148 11.9034C50.4174 11.7209 50.4083 11.5385 50.3876 11.3572C50.3698 11.1835 50.3364 11.0117 50.2879 10.8438C50.2423 10.6857 50.1826 10.5319 50.1096 10.3841C49.9708 10.0944 49.7545 9.84777 49.484 9.67073C49.3453 9.57879 49.1921 9.51021 49.0306 9.46776C48.8393 9.41789 48.6422 9.3928 48.4443 9.39314C48.2696 9.39352 48.095 9.40349 47.9215 9.42299C47.7488 9.44282 47.5773 9.47172 47.4077 9.50955C47.2423 9.54605 47.0788 9.59088 46.9181 9.64387C46.7658 9.69449 46.6165 9.75328 46.4708 9.81997L46.4224 9.83788C46.3786 9.84859 46.333 9.84949 46.2888 9.84052C46.2447 9.83154 46.2031 9.81292 46.1672 9.78602C46.1312 9.75912 46.1018 9.72461 46.0812 9.68504C46.0605 9.64546 46.049 9.60182 46.0476 9.55731L45.7454 6.43816C45.7312 6.34106 45.7481 6.24201 45.7936 6.15481C45.8391 6.0676 45.911 5.99658 45.9993 5.95164C46.1474 5.88597 46.3015 5.81732 46.4829 5.75165C46.6642 5.68599 46.8365 5.62331 47.0148 5.56361C47.1931 5.50391 47.4198 5.44123 47.6192 5.39049C47.8187 5.33975 48.0303 5.29796 48.272 5.25916C48.5138 5.22036 48.7526 5.18752 48.9974 5.16961C49.2422 5.1517 49.5021 5.13976 49.7771 5.13678C50.1824 5.13714 50.5869 5.17209 50.9861 5.24125C51.3421 5.30105 51.6899 5.40121 52.0227 5.53973C52.3276 5.66742 52.6174 5.82755 52.8871 6.0173C53.1467 6.20186 53.3831 6.41629 53.5913 6.65606C53.7963 6.89348 53.9784 7.1493 54.1353 7.42017C54.2964 7.70023 54.4319 7.9939 54.5403 8.29771C54.6499 8.60926 54.7398 8.92726 54.8093 9.24987C54.8818 9.5838 54.9343 9.92168 54.9664 10.2617C54.9997 10.611 55.0208 10.9572 55.0238 11.3034C55.0269 11.6497 55.0238 11.987 54.9997 12.3422V12.369C54.9755 12.7292 54.9422 13.0804 54.8999 13.4227C54.8596 13.753 54.8083 14.0863 54.7458 14.4226V14.4554C54.621 15.1447 54.4524 15.8256 54.2411 16.494C54.0445 17.1084 53.801 17.707 53.5127 18.2849C53.2502 18.8211 52.9471 19.337 52.606 19.8281C52.2864 20.2846 51.9263 20.7121 51.5301 21.1056C51.1586 21.4762 50.754 21.8128 50.3212 22.1115C49.9038 22.3953 49.4595 22.6383 48.9944 22.8368C48.5428 23.028 48.073 23.174 47.592 23.2726C47.1215 23.3673 46.6426 23.4153 46.1625 23.4159H46.1413C45.8995 23.4159 45.6547 23.4159 45.416 23.383C45.1772 23.3502 44.9596 23.3353 44.7511 23.2995C44.5375 23.2597 44.3411 23.2169 44.1617 23.1711C43.9834 23.1263 43.8142 23.0756 43.654 23.0189C43.5059 22.9681 43.3518 22.9174 43.2369 22.8637C43.1221 22.8099 42.98 22.7532 42.8893 22.7025C42.8131 22.6524 42.7577 22.5768 42.7333 22.4897C42.7089 22.4025 42.7171 22.3096 42.7564 22.2279L44.0076 18.9804C44.014 18.9599 44.0221 18.9399 44.0318 18.9207C44.0477 18.8758 44.0725 18.8344 44.1047 18.799C44.137 18.7636 44.1761 18.7349 44.2197 18.7146C44.2633 18.6944 44.3106 18.6829 44.3587 18.6808C44.4069 18.6788 44.455 18.6863 44.5002 18.7028C44.6228 18.7649 44.7489 18.8197 44.878 18.867C45.005 18.9118 45.1379 18.9535 45.28 18.9923C45.4303 19.0284 45.5827 19.0553 45.7363 19.0729C45.9028 19.0926 46.0704 19.1025 46.238 19.1028C46.4889 19.1022 46.7391 19.0762 46.9846 19.0252C47.1936 18.9833 47.3966 18.9162 47.589 18.8252C47.9536 18.6521 48.2786 18.4074 48.544 18.1059C48.6794 17.9494 48.8036 17.7838 48.9158 17.6104C49.0281 17.4337 49.129 17.2503 49.218 17.0612C49.3117 16.8612 49.3994 16.6642 49.4719 16.4642L49.5263 16.3179L49.5354 16.2941ZM75.8111 11.9064H79.2505C79.297 11.9141 79.3412 11.9316 79.3803 11.9575C79.4194 11.9834 79.4525 12.0173 79.4773 12.0568C79.5022 12.0963 79.5183 12.1406 79.5245 12.1867C79.5307 12.2328 79.527 12.2797 79.5135 12.3242L78.9302 15.5479C78.9222 15.6474 78.8791 15.7411 78.8084 15.8126C78.7377 15.884 78.6439 15.9287 78.5433 15.9389H75.0828L74.5267 19.0103H78.4285C78.4749 19.018 78.5191 19.0355 78.5582 19.0614C78.5973 19.0873 78.6304 19.1212 78.6553 19.1607C78.6801 19.2002 78.6962 19.2445 78.7024 19.2906C78.7087 19.3367 78.7049 19.3836 78.6914 19.4281L78.0869 22.804C78.079 22.9036 78.0359 22.9972 77.9652 23.0687C77.8945 23.1401 77.8007 23.1848 77.7001 23.195H69.4462C69.3998 23.1872 69.3555 23.1698 69.3164 23.1439C69.2773 23.1179 69.2442 23.0841 69.2194 23.0446C69.1945 23.0051 69.1784 22.9608 69.1722 22.9147C69.166 22.8686 69.1698 22.8217 69.1833 22.7771L72.2751 5.70091C72.283 5.60133 72.3261 5.50766 72.3968 5.43621C72.4675 5.36477 72.5613 5.32007 72.6619 5.3099H80.6226C80.6691 5.31767 80.7133 5.3351 80.7524 5.36103C80.7915 5.38697 80.8246 5.42081 80.8495 5.46032C80.8743 5.49983 80.8904 5.5441 80.8966 5.59021C80.9028 5.63632 80.8991 5.68321 80.8856 5.72778L80.2811 9.10362C80.2732 9.2032 80.2301 9.29687 80.1594 9.36831C80.0887 9.43976 79.9949 9.48446 79.8943 9.49463H76.2675L75.8323 11.9064H75.8111ZM95.1085 23.195H91.5754C91.5289 23.1911 91.4837 23.1774 91.4431 23.1546C91.4024 23.1319 91.3673 23.1007 91.34 23.0633C91.3127 23.0258 91.2939 22.983 91.285 22.9377C91.2761 22.8925 91.2772 22.8458 91.2883 22.801L91.9744 17.4492C92.0136 17.1358 92.065 16.7358 92.1194 16.309L92.1738 15.9031V15.8822L92.2403 15.3956L92.1617 15.5956L91.8595 16.3508L91.7839 16.5388C91.6631 16.8373 91.5603 17.1059 91.4817 17.3119L89.3057 22.5562C89.2832 22.6365 89.2364 22.7082 89.1716 22.7615C89.1068 22.8149 89.027 22.8474 88.943 22.8547H86.0658C86.0245 22.8548 85.9837 22.8465 85.9458 22.8304C85.9079 22.8143 85.8737 22.7907 85.8454 22.7611C85.8171 22.7314 85.7952 22.6964 85.7811 22.6581C85.7671 22.6197 85.7611 22.579 85.7635 22.5383L85.5339 17.2731L85.5308 16.8492V16.8134V16.2911V15.724V15.6971V15.1598L85.3465 15.9299L85.153 16.7388L84.9808 17.4611L83.7265 22.8338C83.7097 22.9243 83.6634 23.0068 83.5946 23.0688C83.5259 23.1308 83.4384 23.1688 83.3457 23.1771H79.9517H79.9003C79.8545 23.164 79.812 23.1418 79.7754 23.1117C79.7388 23.0816 79.7089 23.0444 79.6876 23.0023C79.6663 22.9602 79.654 22.9142 79.6516 22.8673C79.6492 22.8203 79.6567 22.7733 79.6736 22.7294L84.0983 5.67106C84.1133 5.57898 84.1588 5.49443 84.2277 5.43068C84.2966 5.36693 84.3851 5.32759 84.4791 5.31885H88.6438C88.6862 5.31864 88.7281 5.32723 88.7669 5.34406C88.8057 5.3609 88.8404 5.38559 88.8689 5.41655C88.8974 5.44751 88.919 5.48404 88.9323 5.52378C88.9456 5.56351 88.9503 5.60555 88.946 5.64719L89.0548 11.1214V11.1423C89.082 12.1422 89.1002 12.8615 89.1183 13.5928L89.1334 14.2375C89.1334 14.5519 89.1334 14.8723 89.1334 15.1986C89.2422 14.8783 89.3581 14.5489 89.481 14.2107C89.6563 13.7211 89.8436 13.2107 90.0401 12.6705C90.2365 12.1302 90.4269 11.6258 90.6264 11.0975L92.7178 5.61734C92.741 5.53634 92.7888 5.4643 92.8548 5.41094C92.9207 5.35757 93.0016 5.32543 93.0866 5.31885H97.2241C97.2715 5.32028 97.318 5.33209 97.3602 5.35342C97.4024 5.37475 97.4393 5.40507 97.4682 5.44219C97.4971 5.47932 97.5173 5.52232 97.5274 5.56809C97.5374 5.61386 97.5371 5.66127 97.5263 5.70688L95.5044 22.7771V22.801C95.4964 22.9014 95.453 22.9958 95.3818 23.0678C95.3105 23.1398 95.2159 23.1848 95.1145 23.195H95.1085ZM104.405 11.9064H107.844C107.891 11.9141 107.935 11.9316 107.974 11.9575C108.013 11.9834 108.046 12.0173 108.071 12.0568C108.096 12.0963 108.112 12.1406 108.118 12.1867C108.125 12.2328 108.121 12.2797 108.107 12.3242L107.524 15.5479C107.516 15.6472 107.472 15.7406 107.402 15.8119C107.331 15.8833 107.238 15.9281 107.137 15.9389H103.665L103.121 19.0073H107.019C107.066 19.0146 107.111 19.0317 107.15 19.0575C107.189 19.0834 107.223 19.1172 107.247 19.1569C107.272 19.1965 107.288 19.241 107.294 19.2873C107.3 19.3336 107.296 19.3806 107.282 19.4251L106.678 22.801C106.669 22.9004 106.626 22.9937 106.555 23.0651C106.485 23.1364 106.391 23.1813 106.291 23.192H98.0401C97.9937 23.1842 97.9494 23.1668 97.9103 23.1409C97.8712 23.1149 97.8381 23.0811 97.8133 23.0416C97.7884 23.0021 97.7723 22.9578 97.7661 22.9117C97.7599 22.8656 97.7636 22.8187 97.7771 22.7741L100.869 5.69793C100.877 5.59971 100.918 5.50711 100.987 5.43585C101.056 5.36458 101.148 5.31903 101.247 5.30692H109.207C109.254 5.31469 109.298 5.33212 109.337 5.35805C109.376 5.38398 109.409 5.41782 109.434 5.45733C109.459 5.49684 109.475 5.54112 109.481 5.58723C109.488 5.63334 109.484 5.68023 109.47 5.72479L108.866 9.10063C108.858 9.20021 108.815 9.29388 108.744 9.36533C108.674 9.43678 108.58 9.48147 108.479 9.49164H104.852L104.417 11.9034L104.405 11.9064ZM108.978 22.7771L112.07 5.70091C112.078 5.60133 112.121 5.50766 112.191 5.43621C112.262 5.36477 112.356 5.32007 112.456 5.3099H116.461C116.507 5.31767 116.552 5.3351 116.591 5.36103C116.63 5.38697 116.663 5.42081 116.688 5.46032C116.713 5.49983 116.729 5.5441 116.735 5.59021C116.741 5.63632 116.737 5.68321 116.724 5.72778L115.597 11.9571H117.848L118.982 5.68897C118.992 5.58913 119.038 5.4961 119.111 5.42623C119.184 5.35635 119.279 5.31411 119.38 5.30692H123.385C123.431 5.31469 123.476 5.33212 123.515 5.35805C123.554 5.38398 123.587 5.41782 123.612 5.45733C123.637 5.49684 123.653 5.54112 123.659 5.58723C123.665 5.63334 123.661 5.68023 123.648 5.72479L120.544 22.804C120.536 22.9034 120.492 22.9967 120.422 23.068C120.351 23.1394 120.258 23.1843 120.157 23.195H116.153C116.106 23.1872 116.062 23.1698 116.023 23.1439C115.984 23.1179 115.951 23.0841 115.926 23.0446C115.901 23.0051 115.885 22.9608 115.879 22.9147C115.872 22.8686 115.876 22.8217 115.89 22.7771L117.044 16.3955H114.793L113.638 22.804C113.63 22.9034 113.586 22.9967 113.516 23.068C113.445 23.1394 113.352 23.1843 113.251 23.195H109.241C109.194 23.1872 109.15 23.1698 109.111 23.1439C109.072 23.1179 109.039 23.0841 109.014 23.0446C108.989 23.0051 108.973 22.9608 108.967 22.9147C108.96 22.8686 108.964 22.8217 108.978 22.7771ZM129.481 23.195H125.479C125.433 23.1872 125.389 23.1698 125.35 23.1439C125.311 23.1179 125.277 23.0841 125.253 23.0446C125.228 23.0051 125.212 22.9608 125.205 22.9147C125.199 22.8686 125.203 22.8217 125.217 22.7771L127.574 9.74834H124.905C124.859 9.74102 124.814 9.72387 124.775 9.69806C124.735 9.67225 124.702 9.63837 124.677 9.59874C124.652 9.5591 124.636 9.51463 124.63 9.46834C124.624 9.42205 124.628 9.37503 124.642 9.33046L125.298 5.70091C125.306 5.60133 125.349 5.50766 125.42 5.43621C125.491 5.36477 125.584 5.32007 125.685 5.3099H135.725C135.771 5.31767 135.816 5.3351 135.855 5.36103C135.894 5.38697 135.927 5.42081 135.952 5.46032C135.977 5.49983 135.993 5.5441 135.999 5.59021C136.005 5.63632 136.001 5.68321 135.988 5.72778L135.332 9.35733C135.324 9.45691 135.281 9.55058 135.21 9.62202C135.14 9.69347 135.046 9.73817 134.945 9.74834H132.225L129.871 22.804C129.862 22.9034 129.819 22.9967 129.748 23.068C129.678 23.1394 129.584 23.1843 129.484 23.195H129.481Z" fill="white"/>
<path d="M134.525 29.311L134.661 28.5528C134.661 28.4991 134.682 28.4394 134.692 28.3708C134.701 28.3021 134.713 28.2305 134.725 28.1529L134.758 27.932C134.758 27.8604 134.779 27.7917 134.788 27.732H134.794L134.822 27.929L134.852 28.1499C134.852 28.2245 134.873 28.2961 134.882 28.3678C134.891 28.4394 134.903 28.4991 134.912 28.5558L135.033 29.314L134.525 29.311ZM135.112 29.8602L135.269 30.687H135.961L135.248 27.0664H134.392L133.597 30.687H134.29L134.453 29.8602H135.112ZM130.968 27.0664V30.687H131.663V29.1498H131.718C131.76 29.1484 131.803 29.1553 131.843 29.1701C131.883 29.185 131.919 29.2075 131.95 29.2364C132.017 29.3051 132.066 29.3877 132.095 29.4781C132.138 29.599 132.173 29.7227 132.198 29.8483L132.286 30.2751C132.315 30.4145 132.352 30.5521 132.398 30.687H133.105C133.054 30.5199 133.01 30.3507 132.972 30.1796C132.934 30.0084 132.896 29.8333 132.86 29.6542C132.831 29.5173 132.791 29.3826 132.742 29.2513C132.699 29.142 132.636 29.041 132.558 28.9528C132.476 28.8609 132.372 28.7902 132.256 28.7469L133.093 27.0753H132.316L131.712 28.6484H131.657V27.0664H130.968ZM127.746 27.0664V30.687H128.405L128.943 29.305C128.982 29.2006 129.028 29.0871 129.073 28.9648C129.118 28.8424 129.164 28.717 129.206 28.5916C129.248 28.4663 129.285 28.3499 129.315 28.2394C129.315 28.4215 129.294 28.6484 129.282 28.917C129.27 29.1856 129.267 29.514 129.267 29.8662V30.684H129.892V27.0664H129.245L128.707 28.4693L128.614 28.7081L128.508 28.9886C128.472 29.0861 128.436 29.1856 128.402 29.2871C128.369 29.3796 128.339 29.4662 128.311 29.5468C128.311 29.4214 128.333 29.2692 128.342 29.0961C128.351 28.923 128.363 28.7319 128.369 28.526C128.375 28.32 128.369 28.1051 128.369 27.8813V27.0664H127.746ZM124.512 27.0664V30.687H125.226V29.1707H125.972V30.687H126.686V27.0664H125.972V28.517H125.226V27.0664H124.512ZM123.787 30.687L123.065 28.8663L123.751 27.0753H123.038L122.853 27.735L122.805 27.929L122.754 28.12L122.696 28.326C122.669 28.2245 122.642 28.126 122.614 28.0275L122.533 27.729L122.315 27.0574H121.575L122.234 28.8245L121.548 30.678H122.255L122.451 30.0214L122.533 29.702L122.621 29.3647H122.636C122.666 29.4801 122.697 29.5906 122.729 29.696C122.763 29.8005 122.796 29.905 122.832 30.0094L123.062 30.6751L123.787 30.687ZM120.837 28.5111H120.006V27.6783H120.892V27.0664H119.299V30.687H120.952V30.0751H120.012V29.0961H120.843V28.4991L120.837 28.5111ZM117.12 30.687H117.833V27.7022H118.474V27.0664H116.461V27.7171H117.108V30.7019L117.12 30.687ZM109.407 28.6931H109.304C109.21 28.6948 109.117 28.671 109.035 28.6245C108.958 28.5783 108.896 28.5109 108.857 28.4305C108.813 28.3369 108.792 28.2349 108.794 28.132C108.793 28.0644 108.802 27.9971 108.821 27.932C108.838 27.8697 108.867 27.8111 108.905 27.7589C108.944 27.7079 108.995 27.6669 109.053 27.6395C109.12 27.6082 109.194 27.5929 109.268 27.5947H109.344H109.407V28.6752V28.6931ZM108.685 30.687C108.709 30.6368 108.729 30.585 108.745 30.5318C108.762 30.4789 108.777 30.4251 108.788 30.3706C108.788 30.302 108.815 30.2184 108.83 30.1288C108.845 30.0393 108.857 29.9408 108.872 29.8453C108.888 29.7536 108.909 29.6629 108.936 29.5737C108.956 29.5011 108.989 29.4325 109.032 29.3707C109.067 29.3288 109.112 29.296 109.162 29.2752C109.216 29.2528 109.273 29.2416 109.332 29.2423H109.407V30.687H110.12V27.1052C110.005 27.0843 109.885 27.0664 109.749 27.0545C109.613 27.0425 109.48 27.0365 109.341 27.0365C109.165 27.0349 108.99 27.0569 108.821 27.1022C108.671 27.1419 108.532 27.2109 108.41 27.3052C108.341 27.3596 108.281 27.424 108.231 27.4962C108.178 27.5771 108.137 27.6657 108.111 27.7589C108.08 27.8677 108.065 27.9802 108.065 28.0932C108.063 28.2314 108.09 28.3685 108.144 28.4961C108.192 28.6115 108.268 28.7139 108.364 28.7946C108.462 28.874 108.575 28.9329 108.697 28.9677C108.648 28.9844 108.601 29.0064 108.558 29.0334C108.513 29.0607 108.472 29.0927 108.434 29.1289C108.366 29.201 108.313 29.2851 108.277 29.3767C108.237 29.4731 108.207 29.573 108.186 29.6751C108.165 29.7796 108.147 29.8841 108.129 29.9886C108.111 30.093 108.089 30.1915 108.065 30.287C108.041 30.3825 108.023 30.4243 108.002 30.49C107.981 30.5557 107.953 30.6184 107.929 30.6751L108.685 30.687ZM105.947 29.311L106.083 28.5528C106.083 28.4991 106.104 28.4394 106.113 28.3708C106.122 28.3021 106.137 28.2305 106.146 28.1529L106.179 27.932C106.179 27.8604 106.2 27.7917 106.209 27.732H106.225L106.252 27.929L106.282 28.1499C106.282 28.2245 106.303 28.2961 106.312 28.3678C106.321 28.4394 106.333 28.4991 106.342 28.5558L106.463 29.314L105.947 29.311ZM106.533 29.8602L106.69 30.687H107.382L106.669 27.0664H105.814L105.019 30.687H105.711L105.874 29.8602H106.533ZM102.945 29.0752H103.097C103.188 29.0746 103.278 29.0962 103.359 29.1379C103.44 29.1805 103.507 29.2446 103.553 29.3229C103.599 29.4158 103.623 29.5179 103.623 29.6214C103.623 29.7249 103.599 29.8271 103.553 29.9199C103.51 29.9975 103.445 30.0609 103.366 30.102C103.282 30.1427 103.19 30.1632 103.097 30.1617H103.012H102.939V29.0752H102.945ZM102.945 27.5977C102.972 27.5885 102.999 27.5825 103.027 27.5798H103.136C103.219 27.577 103.301 27.5988 103.372 27.6425C103.433 27.6834 103.48 27.7417 103.508 27.8096C103.537 27.8858 103.551 27.9669 103.55 28.0484C103.55 28.1394 103.53 28.2292 103.489 28.3111C103.453 28.3846 103.398 28.4474 103.329 28.4931C103.26 28.5368 103.179 28.5596 103.097 28.5588H102.945V27.6037V27.5977ZM102.232 30.6721C102.314 30.6721 102.41 30.696 102.534 30.7049C102.658 30.7139 102.77 30.7049 102.906 30.7049C103.086 30.7069 103.266 30.6929 103.444 30.6631C103.58 30.6411 103.713 30.5999 103.837 30.5407C103.94 30.4916 104.032 30.4237 104.109 30.3408C104.196 30.2558 104.265 30.1543 104.311 30.0423C104.36 29.9145 104.384 29.7788 104.381 29.6423C104.382 29.5134 104.358 29.3856 104.308 29.2662C104.26 29.1517 104.185 29.0496 104.091 28.9677C103.988 28.8793 103.866 28.8151 103.734 28.7797V28.7588C103.848 28.7121 103.951 28.643 104.036 28.5558C104.113 28.4767 104.172 28.3833 104.212 28.2812C104.248 28.1857 104.267 28.0847 104.269 27.9827C104.27 27.8593 104.248 27.7367 104.203 27.6216C104.159 27.5058 104.086 27.403 103.991 27.3231C103.908 27.254 103.814 27.1995 103.713 27.1619C103.616 27.1246 103.514 27.0986 103.411 27.0843C103.3 27.0712 103.187 27.0652 103.075 27.0664C102.922 27.0664 102.776 27.0724 102.637 27.0843C102.512 27.0936 102.388 27.1116 102.265 27.138V30.69L102.232 30.6721ZM100.183 27.6365C100.222 27.6366 100.261 27.6455 100.296 27.6626C100.331 27.6797 100.362 27.7044 100.386 27.735C100.447 27.814 100.491 27.9043 100.515 28.0006C100.55 28.1267 100.573 28.2556 100.585 28.3857C100.585 28.5319 100.606 28.6842 100.606 28.8424C100.606 29.0006 100.606 29.1976 100.582 29.3528C100.57 29.489 100.546 29.6239 100.509 29.7557C100.486 29.8524 100.441 29.9429 100.379 30.0214C100.357 30.0507 100.327 30.0745 100.294 30.0911C100.26 30.1076 100.224 30.1164 100.186 30.1169C100.041 30.1169 99.9322 30.0124 99.8566 29.8184C99.7679 29.5171 99.7291 29.2037 99.7418 28.8901C99.7387 28.6662 99.7559 28.4424 99.7932 28.2215C99.8142 28.0721 99.8645 27.9281 99.9413 27.7977C99.966 27.7551 100.001 27.7192 100.043 27.6931C100.085 27.6671 100.133 27.6517 100.183 27.6484V27.6365ZM100.216 27.0246C100.064 27.0226 99.9128 27.0553 99.775 27.1201C99.6436 27.1841 99.5273 27.2746 99.4335 27.3858C99.3325 27.5071 99.251 27.643 99.1917 27.7887C99.1246 27.951 99.076 28.1202 99.0467 28.2932C99.0142 28.4815 98.998 28.6722 98.9983 28.8633C98.9973 29.056 99.0104 29.2485 99.0376 29.4393C99.0619 29.6134 99.1045 29.7844 99.1645 29.9497C99.2167 30.0969 99.2922 30.2349 99.3882 30.3587C99.4769 30.4764 99.5929 30.5714 99.7265 30.6358C99.86 30.7002 100.007 30.7321 100.156 30.7288C100.321 30.7316 100.485 30.6948 100.633 30.6213C100.786 30.5417 100.915 30.4245 101.008 30.2811C101.126 30.0983 101.209 29.8961 101.253 29.6841C101.315 29.3967 101.344 29.1034 101.341 28.8095C101.341 28.6409 101.33 28.4723 101.307 28.3051C101.286 28.1408 101.248 27.9789 101.196 27.8216C101.147 27.6757 101.077 27.5378 100.987 27.4126C100.904 27.2897 100.793 27.1875 100.664 27.1141C100.523 27.0413 100.366 27.0044 100.207 27.0067L100.216 27.0246ZM97.0096 30.69H97.7229V27.7051H98.3757V27.0664H96.3629V27.7171H97.0096V30.7019V30.69ZM94.8366 27.0694V30.69H95.5499V27.0664L94.8366 27.0694ZM93.1895 28.9886H93.265H93.3406C93.4319 28.987 93.5216 29.0131 93.5975 29.0633C93.6707 29.1158 93.7281 29.187 93.7637 29.2692C93.8038 29.3637 93.8243 29.4652 93.8241 29.5677C93.8255 29.6706 93.8038 29.7725 93.7607 29.8662C93.721 29.951 93.6595 30.0241 93.5824 30.0781C93.5054 30.1314 93.4134 30.1596 93.3194 30.1587H93.259H93.1895V28.9827V28.9886ZM92.4762 27.0694V30.6751C92.5608 30.6751 92.6545 30.6989 92.7603 30.7079C92.8661 30.7169 92.9809 30.7079 93.0958 30.7079C93.3274 30.7122 93.5581 30.6789 93.7788 30.6094C93.9618 30.5494 94.1276 30.4471 94.2624 30.3109C94.3607 30.21 94.4369 30.0901 94.486 29.9587C94.5418 29.8056 94.5694 29.6438 94.5676 29.4811C94.5693 29.3272 94.5416 29.1743 94.486 29.0304C94.4353 28.9003 94.357 28.7824 94.2564 28.6846C94.1558 28.5868 94.0352 28.5114 93.9027 28.4633C93.7587 28.4104 93.6061 28.3841 93.4524 28.3857H93.3224L93.1864 28.4066V27.0664L92.4762 27.0694ZM90.1732 28.9886C90.2269 28.9778 90.2816 28.9728 90.3364 28.9737C90.4106 28.9738 90.4839 28.9901 90.551 29.0215C90.6143 29.0519 90.6708 29.0945 90.7172 29.1468C90.7646 29.2021 90.8005 29.266 90.823 29.3349C90.848 29.41 90.8603 29.4886 90.8593 29.5677C90.8596 29.6457 90.8473 29.7233 90.823 29.7975C90.8017 29.8666 90.7679 29.9314 90.7233 29.9886C90.6781 30.0421 90.6213 30.0849 90.5571 30.1139C90.4868 30.1449 90.4104 30.1602 90.3334 30.1587H90.2488C90.2237 30.1618 90.1983 30.1618 90.1732 30.1587V28.9827V28.9886ZM89.46 27.0664V30.6721C89.5416 30.6721 89.6383 30.696 89.7622 30.7049C89.8861 30.7139 89.9979 30.7049 90.1339 30.7049C90.3663 30.7094 90.5979 30.6771 90.82 30.6094C91.0038 30.5511 91.1699 30.4485 91.3036 30.3109C91.402 30.2101 91.4781 30.0901 91.5272 29.9587C91.5824 29.8085 91.61 29.6498 91.6088 29.4901C91.6119 29.3242 91.58 29.1595 91.5151 29.0065C91.4569 28.8727 91.3691 28.7534 91.2582 28.6573C91.1564 28.567 91.0372 28.498 90.9076 28.4543C90.7667 28.4063 90.6185 28.382 90.4694 28.3827H90.3243L90.1793 28.4036V27.6663H91.3368V27.0694L89.46 27.0664Z" fill="white"/>
<path d="M72.4598 29.326L72.5958 28.5679C72.5958 28.5141 72.6169 28.4544 72.626 28.3858C72.6351 28.3171 72.6471 28.2455 72.6592 28.1679L72.6925 27.947C72.6925 27.8754 72.7136 27.8067 72.7227 27.747H72.7378L72.765 27.944L72.7952 28.1649C72.7952 28.2395 72.8164 28.3112 72.8255 28.3828C72.8345 28.4544 72.8466 28.5141 72.8557 28.5708L72.9766 29.329L72.4598 29.326ZM73.0461 29.8752L73.2032 30.702H73.8954L73.1821 27.0814H72.3268L71.5319 30.702H72.2331L72.3963 29.8752H73.0461ZM68.9086 27.0814V30.702H69.6037V29.1648H69.6581C69.7007 29.1634 69.7433 29.1703 69.7832 29.1851C69.8232 29.2 69.8597 29.2225 69.8908 29.2514C69.9571 29.3201 70.0067 29.4028 70.0359 29.4932C70.0789 29.614 70.1132 29.7377 70.1386 29.8633L70.2263 30.2901C70.2561 30.4296 70.2945 30.5671 70.3411 30.702H71.0483C70.998 30.5349 70.9536 30.3657 70.9154 30.1946C70.8771 30.0235 70.8398 29.8484 70.8035 29.6693C70.7743 29.5323 70.7349 29.3976 70.6857 29.2663C70.6421 29.1571 70.5797 29.0561 70.5013 28.9678C70.419 28.876 70.3153 28.8053 70.1991 28.7619L71.0363 27.0904H70.2535L69.649 28.6634H69.5946V27.0814H68.9086ZM65.6868 27.0814V30.702H66.3457L66.8836 29.32C66.9229 29.2156 66.9682 29.1021 67.0136 28.9798C67.0589 28.8574 67.1043 28.732 67.1466 28.6067C67.1889 28.4813 67.2251 28.3649 67.2554 28.2545C67.2554 28.4365 67.2312 28.6634 67.2221 28.932C67.2131 29.2006 67.207 29.529 67.207 29.8812V30.699H67.8326V27.0814H67.1859L66.6479 28.4843L66.5542 28.7231L66.4484 29.0036C66.4121 29.1012 66.3769 29.2006 66.3426 29.3021C66.3094 29.3947 66.2792 29.4812 66.252 29.5618C66.252 29.4364 66.2731 29.2842 66.2822 29.1111C66.2913 28.938 66.3033 28.747 66.3094 28.541C66.3154 28.335 66.3094 28.1201 66.3094 27.8963V27.0814H65.6868ZM62.4529 27.0814V30.702H63.1662V29.1887H63.9127V30.705H64.626V27.0814H63.9127V28.532H63.1662V27.0814H62.4529ZM60.4038 27.6515C60.4429 27.6516 60.4815 27.6606 60.5166 27.6776C60.5517 27.6947 60.5824 27.7195 60.6063 27.75C60.6674 27.829 60.7116 27.9193 60.7363 28.0157C60.7709 28.1417 60.7942 28.2706 60.8058 28.4007C60.8058 28.547 60.8269 28.6992 60.8269 28.8574C60.8269 29.0156 60.8269 29.2126 60.8058 29.3678C60.7941 29.504 60.7698 29.6389 60.7333 29.7707C60.7094 29.8674 60.6651 29.9579 60.6033 30.0364C60.5805 30.0657 60.5512 30.0895 60.5177 30.1061C60.4842 30.1226 60.4473 30.1315 60.4099 30.1319C60.2648 30.1319 60.156 30.0274 60.0804 29.8334C59.9917 29.5321 59.9529 29.2187 59.9656 28.9051C59.9625 28.6812 59.9797 28.4575 60.017 28.2365C60.0378 28.0871 60.0881 27.9431 60.1651 27.8127C60.1898 27.7701 60.2248 27.7342 60.267 27.7082C60.3092 27.6821 60.3572 27.6668 60.4068 27.6635L60.4038 27.6515ZM60.4371 27.0396C60.2845 27.0374 60.1335 27.0701 59.9958 27.1351C59.8655 27.1994 59.7502 27.2899 59.6573 27.4008C59.5562 27.522 59.4747 27.658 59.4155 27.8037C59.3484 27.9661 59.2997 28.1352 59.2705 28.3082C59.238 28.4965 59.2218 28.6872 59.2221 28.8783C59.2211 29.071 59.2343 29.2635 59.2614 29.4544C59.2858 29.6284 59.3283 29.7994 59.3883 29.9648C59.4408 30.1118 59.5163 30.2497 59.612 30.3737C59.7009 30.4912 59.8169 30.5861 59.9505 30.6505C60.084 30.7149 60.2311 30.7469 60.3796 30.7438C60.5453 30.7466 60.7091 30.7098 60.8572 30.6363C61.0097 30.5567 61.1388 30.4395 61.2319 30.2961C61.3494 30.1133 61.4323 29.9111 61.4767 29.6991C61.5386 29.4117 61.568 29.1184 61.5644 28.8246C61.5645 28.6559 61.5534 28.4874 61.5311 28.3201C61.5094 28.1558 61.4719 27.9939 61.4193 27.8366C61.3709 27.6907 61.3006 27.5529 61.2108 27.4277C61.1279 27.3047 61.0172 27.2026 60.8874 27.1292C60.7468 27.0562 60.5899 27.0193 60.431 27.0217L60.4371 27.0396ZM57.1972 27.6635C57.2225 27.6538 57.2489 27.6468 57.2757 27.6426H57.3694C57.4642 27.6395 57.5575 27.6667 57.6354 27.7202C57.7041 27.7705 57.7557 27.8402 57.7835 27.9202C57.8526 28.1133 57.8526 28.324 57.7835 28.5171C57.7498 28.6021 57.6908 28.6749 57.6142 28.7261C57.5239 28.7819 57.4184 28.809 57.312 28.8037H57.2516H57.1941V27.6605L57.1972 27.6635ZM56.4839 30.705H57.1972V29.3529H57.2667H57.3362C57.4379 29.3516 57.5393 29.3396 57.6384 29.3171C57.7435 29.2918 57.8451 29.2537 57.9407 29.2036C58.0398 29.1531 58.1297 29.0865 58.2066 29.0066C58.3116 28.9069 58.395 28.7871 58.4514 28.6544C58.5096 28.4915 58.5383 28.3197 58.536 28.147C58.5363 28.0466 58.5252 27.9465 58.5028 27.8485C58.481 27.7539 58.4464 27.6625 58.4 27.5769C58.3541 27.4935 58.2938 27.4188 58.2217 27.356C58.1446 27.2834 58.0544 27.2257 57.9558 27.1859C57.8492 27.1429 57.7375 27.1138 57.6233 27.0993C57.4931 27.0824 57.3618 27.0744 57.2304 27.0754C57.0914 27.0754 56.9614 27.0754 56.8315 27.0934C56.7148 27.1039 56.5987 27.1208 56.4839 27.1441V30.7259V30.705ZM54.3109 30.705H55.006V27.7202H55.6588V27.0814H53.646V27.7321H54.2927V30.7169L54.3109 30.705ZM51.0075 27.0814V30.702H51.7026V29.1648H51.757C51.8411 29.1635 51.9224 29.1945 51.9837 29.2514C52.0499 29.3202 52.0995 29.4028 52.1288 29.4932C52.1718 29.614 52.2061 29.7377 52.2315 29.8633L52.3192 30.2901C52.3491 30.4296 52.3874 30.5671 52.434 30.702H53.1412C53.0909 30.5349 53.0466 30.3657 53.0083 30.1946C52.969 30.0215 52.9327 29.8484 52.8964 29.6693C52.8671 29.5323 52.8277 29.3976 52.7786 29.2663C52.735 29.1571 52.6726 29.0561 52.5942 28.9678C52.5119 28.876 52.4082 28.8053 52.292 28.7619L53.1292 27.0904H52.3464L51.7419 28.6634H51.6875V27.0814H51.0075ZM49.9769 28.5261H49.1428V27.6933H50.0253V27.0814H48.4325V30.702H50.0857V30.0901H49.1428V29.1111H49.9739V28.5141L49.9769 28.5261ZM45.4586 27.0814V28.7141C45.4586 28.9469 45.4586 29.1499 45.4404 29.3111C45.431 29.4578 45.4046 29.603 45.3619 29.7439C45.3329 29.855 45.2769 29.9575 45.1987 30.0424C45.1638 30.0721 45.1252 30.0972 45.0838 30.117C45.0424 30.1375 44.9988 30.1535 44.9539 30.1647L45.105 30.7617C45.1958 30.7615 45.2858 30.7453 45.3709 30.714C45.4539 30.6836 45.5315 30.6402 45.6006 30.5856C45.716 30.4954 45.8099 30.3813 45.8756 30.2513C45.9491 30.108 46.002 29.9553 46.0328 29.7976C46.0691 29.6184 46.0924 29.4369 46.1023 29.2544C46.1124 29.0554 46.1174 28.8564 46.1174 28.6574V27.7023H46.6554V30.711H47.3687V27.0814H45.4586ZM42.7022 29.1708H43.6936C43.687 29.257 43.6749 29.3428 43.6573 29.4275C43.639 29.5133 43.6127 29.5972 43.5787 29.6782C43.545 29.7573 43.4991 29.8308 43.4427 29.8961C43.3869 29.9605 43.3179 30.0124 43.2402 30.0483C43.1508 30.0875 43.0539 30.1068 42.9561 30.105C42.8902 30.1055 42.8244 30.0995 42.7597 30.0871H42.7294H42.7022V30.714H42.7687H42.7869C42.8746 30.7296 42.9636 30.7376 43.0528 30.7378C43.2501 30.7394 43.4449 30.6943 43.621 30.6065C43.7931 30.518 43.9421 30.3913 44.0562 30.2364C44.1834 30.0614 44.2776 29.8653 44.3343 29.6573C44.4008 29.4111 44.4333 29.157 44.431 28.9022C44.4309 28.7596 44.4229 28.6171 44.4068 28.4753C44.3916 28.3313 44.3654 28.1886 44.3282 28.0485C44.2915 27.912 44.2398 27.7799 44.1741 27.6545C44.1124 27.5352 44.0318 27.4263 43.9353 27.3321C43.8374 27.237 43.7213 27.1619 43.5938 27.1113C43.4472 27.0559 43.2913 27.0286 43.1344 27.0307C43.0422 27.0307 42.9502 27.0387 42.8594 27.0546L42.7204 27.0844H42.6992V27.7082H42.7264L42.8141 27.6844C42.8865 27.6682 42.9605 27.6602 43.0347 27.6605C43.1227 27.6594 43.2096 27.6788 43.2886 27.7172C43.361 27.7533 43.4249 27.8042 43.476 27.8664C43.5296 27.9293 43.5734 27.9997 43.6059 28.0754C43.6397 28.152 43.6651 28.2321 43.6815 28.3142C43.6967 28.3919 43.7048 28.4708 43.7056 28.55H42.7053V29.1738L42.7022 29.1708Z" fill="white"/>
</g>
<defs>
<clipPath id="clip0">
<rect width="136" height="36" fill="white"/>
</clipPath>
</defs>
</svg>
