<svg width="158" height="31" viewBox="0 0 158 31" fill="none" xmlns="http://www.w3.org/2000/svg">
<path d="M2.80273 1.04688L5.35938 8.26562L7.90234 1.04688H10.5957V11H8.53809V8.2793L8.74316 3.58301L6.05664 11H4.64844L1.96875 3.58984L2.17383 8.2793V11H0.123047V1.04688H2.80273ZM14.3418 11H12.3594V3.60352H14.3418V11ZM12.2432 1.68945C12.2432 1.39323 12.3411 1.14941 12.5371 0.958008C12.7376 0.766602 13.0088 0.670898 13.3506 0.670898C13.6878 0.670898 13.9567 0.766602 14.1572 0.958008C14.3577 1.14941 14.458 1.39323 14.458 1.68945C14.458 1.99023 14.3555 2.23633 14.1504 2.42773C13.9499 2.61914 13.6833 2.71484 13.3506 2.71484C13.0179 2.71484 12.749 2.61914 12.5439 2.42773C12.3434 2.23633 12.2432 1.99023 12.2432 1.68945ZM21.6426 9.35254H25.9971V11H19.5918V1.04688H21.6426V9.35254ZM33.168 6.68652H29.2305V9.35254H33.8516V11H27.1797V1.04688H33.8379V2.70801H29.2305V5.08008H33.168V6.68652ZM35.0547 11V1.04688H38.1172C38.9922 1.04688 39.7738 1.24512 40.4619 1.6416C41.1546 2.03353 41.6947 2.59408 42.082 3.32324C42.4694 4.04785 42.6631 4.87272 42.6631 5.79785V6.25586C42.6631 7.18099 42.4717 8.00358 42.0889 8.72363C41.7106 9.44368 41.1751 10.002 40.4824 10.3984C39.7897 10.7949 39.0081 10.9954 38.1377 11H35.0547ZM37.1055 2.70801V9.35254H38.0967C38.8988 9.35254 39.5117 9.09049 39.9355 8.56641C40.3594 8.04232 40.5758 7.29264 40.585 6.31738V5.79102C40.585 4.7793 40.3753 4.01367 39.9561 3.49414C39.5368 2.97005 38.9238 2.70801 38.1172 2.70801H37.1055ZM52.8076 8.38867C52.8076 8.0013 52.6709 7.70508 52.3975 7.5C52.124 7.29036 51.6318 7.07161 50.9209 6.84375C50.21 6.61133 49.6471 6.38346 49.2324 6.16016C48.1022 5.54948 47.5371 4.72689 47.5371 3.69238C47.5371 3.15462 47.6875 2.67611 47.9883 2.25684C48.2936 1.83301 48.7288 1.5026 49.2939 1.26562C49.8636 1.02865 50.5016 0.910156 51.208 0.910156C51.9189 0.910156 52.5524 1.04004 53.1084 1.2998C53.6644 1.55501 54.0951 1.91732 54.4004 2.38672C54.7103 2.85612 54.8652 3.38932 54.8652 3.98633H52.8145C52.8145 3.5306 52.6709 3.17741 52.3838 2.92676C52.0967 2.67155 51.6934 2.54395 51.1738 2.54395C50.6725 2.54395 50.2829 2.65104 50.0049 2.86523C49.7269 3.07487 49.5879 3.35286 49.5879 3.69922C49.5879 4.02279 49.7497 4.29395 50.0732 4.5127C50.4014 4.73145 50.8822 4.93652 51.5156 5.12793C52.6823 5.47884 53.5322 5.91406 54.0654 6.43359C54.5986 6.95312 54.8652 7.60026 54.8652 8.375C54.8652 9.23633 54.5394 9.91309 53.8877 10.4053C53.236 10.8929 52.3587 11.1367 51.2559 11.1367C50.4902 11.1367 49.793 10.9977 49.1641 10.7197C48.5352 10.4372 48.0544 10.0521 47.7217 9.56445C47.3936 9.07682 47.2295 8.51172 47.2295 7.86914H49.2871C49.2871 8.96745 49.9434 9.5166 51.2559 9.5166C51.7435 9.5166 52.124 9.41862 52.3975 9.22266C52.6709 9.02214 52.8076 8.74414 52.8076 8.38867ZM57.9824 3.60352L58.0439 4.43066C58.568 3.78809 59.2767 3.4668 60.1699 3.4668C61.1224 3.4668 61.7764 3.84277 62.1318 4.59473C62.6514 3.84277 63.3919 3.4668 64.3535 3.4668C65.1556 3.4668 65.7526 3.7015 66.1445 4.1709C66.5365 4.63574 66.7324 5.33757 66.7324 6.27637V11H64.75V6.2832C64.75 5.86393 64.668 5.55859 64.5039 5.36719C64.3398 5.17122 64.0505 5.07324 63.6357 5.07324C63.0433 5.07324 62.6331 5.35579 62.4053 5.9209L62.4121 11H60.4365V6.29004C60.4365 5.86165 60.3522 5.55176 60.1836 5.36035C60.015 5.16895 59.7279 5.07324 59.3223 5.07324C58.7617 5.07324 58.3561 5.30566 58.1055 5.77051V11H56.1299V3.60352H57.9824ZM72.543 11C72.4518 10.8223 72.3857 10.6012 72.3447 10.3369C71.8662 10.8701 71.2441 11.1367 70.4785 11.1367C69.7539 11.1367 69.1523 10.9271 68.6738 10.5078C68.1999 10.0885 67.9629 9.5599 67.9629 8.92188C67.9629 8.13802 68.2523 7.53646 68.8311 7.11719C69.4144 6.69792 70.2552 6.486 71.3535 6.48145H72.2627V6.05762C72.2627 5.71582 72.1738 5.44238 71.9961 5.2373C71.8229 5.03223 71.5472 4.92969 71.1689 4.92969C70.8363 4.92969 70.5742 5.00944 70.3828 5.16895C70.196 5.32845 70.1025 5.5472 70.1025 5.8252H68.127C68.127 5.39681 68.2591 5.00033 68.5234 4.63574C68.7878 4.27116 69.1615 3.98633 69.6445 3.78125C70.1276 3.57161 70.6699 3.4668 71.2715 3.4668C72.1829 3.4668 72.9053 3.69694 73.4385 4.15723C73.9762 4.61296 74.2451 5.25553 74.2451 6.08496V9.29102C74.2497 9.99284 74.3477 10.5238 74.5391 10.8838V11H72.543ZM70.9092 9.62598C71.2008 9.62598 71.4697 9.56217 71.7158 9.43457C71.9619 9.30241 72.1442 9.12695 72.2627 8.9082V7.63672H71.5244C70.5355 7.63672 70.0091 7.97852 69.9453 8.66211L69.9385 8.77832C69.9385 9.02441 70.0251 9.22721 70.1982 9.38672C70.3714 9.54622 70.6084 9.62598 70.9092 9.62598ZM79.9189 5.45605C79.6501 5.4196 79.4131 5.40137 79.208 5.40137C78.4606 5.40137 77.9707 5.6543 77.7383 6.16016V11H75.7627V3.60352H77.6289L77.6836 4.48535C78.0801 3.80632 78.6292 3.4668 79.3311 3.4668C79.5498 3.4668 79.7549 3.49642 79.9463 3.55566L79.9189 5.45605ZM83.583 1.78516V3.60352H84.8477V5.05273H83.583V8.74414C83.583 9.01758 83.6354 9.21354 83.7402 9.33203C83.8451 9.45052 84.0456 9.50977 84.3418 9.50977C84.5605 9.50977 84.7542 9.49382 84.9229 9.46191V10.959C84.5355 11.0775 84.1367 11.1367 83.7266 11.1367C82.3411 11.1367 81.6348 10.4372 81.6074 9.03809V5.05273H80.5273V3.60352H81.6074V1.78516H83.583ZM96.6465 2.70801H93.5977V11H91.5469V2.70801H88.5391V1.04688H96.6465V2.70801ZM101.609 8.53223L103.865 1.04688H106.148L102.683 11H100.543L97.0908 1.04688H99.3672L101.609 8.53223ZM116.211 7.25391H117.339V8.84668H116.211V11H114.235V8.84668H110.154L110.065 7.60254L114.215 1.04688H116.211V7.25391ZM112.034 7.25391H114.235V3.74023L114.105 3.96582L112.034 7.25391ZM124.236 8.94922H120.641L119.957 11H117.776L121.481 1.04688H123.382L127.107 11H124.927L124.236 8.94922ZM121.194 7.28809H123.683L122.432 3.5625L121.194 7.28809ZM133.574 7.49316V11H131.523V1.04688H135.406C136.154 1.04688 136.81 1.18359 137.375 1.45703C137.945 1.73047 138.382 2.12012 138.688 2.62598C138.993 3.12728 139.146 3.69922 139.146 4.3418C139.146 5.31706 138.811 6.08724 138.141 6.65234C137.475 7.21289 136.552 7.49316 135.372 7.49316H133.574ZM133.574 5.83203H135.406C135.949 5.83203 136.361 5.70443 136.644 5.44922C136.931 5.19401 137.074 4.82943 137.074 4.35547C137.074 3.86784 136.931 3.47363 136.644 3.17285C136.356 2.87207 135.96 2.71712 135.454 2.70801H133.574V5.83203ZM144.245 7.35645H142.611V11H140.561V1.04688H144.259C145.435 1.04688 146.341 1.30892 146.979 1.83301C147.618 2.3571 147.937 3.09766 147.937 4.05469C147.937 4.73372 147.788 5.30111 147.492 5.75684C147.201 6.20801 146.756 6.56803 146.159 6.83691L148.312 10.9043V11H146.111L144.245 7.35645ZM142.611 5.69531H144.266C144.781 5.69531 145.179 5.56543 145.462 5.30566C145.744 5.04134 145.886 4.67904 145.886 4.21875C145.886 3.74935 145.751 3.38021 145.482 3.11133C145.218 2.84245 144.81 2.70801 144.259 2.70801H142.611V5.69531ZM157.678 6.24902C157.678 7.22884 157.505 8.08789 157.158 8.82617C156.812 9.56445 156.315 10.1341 155.668 10.5352C155.025 10.9362 154.287 11.1367 153.453 11.1367C152.628 11.1367 151.892 10.9385 151.245 10.542C150.598 10.1455 150.097 9.5804 149.741 8.84668C149.386 8.1084 149.206 7.26074 149.201 6.30371V5.81152C149.201 4.83171 149.377 3.97038 149.728 3.22754C150.083 2.48014 150.582 1.9082 151.225 1.51172C151.872 1.11068 152.61 0.910156 153.439 0.910156C154.269 0.910156 155.005 1.11068 155.647 1.51172C156.295 1.9082 156.794 2.48014 157.145 3.22754C157.5 3.97038 157.678 4.82943 157.678 5.80469V6.24902ZM155.6 5.79785C155.6 4.75423 155.413 3.96126 155.039 3.41895C154.665 2.87663 154.132 2.60547 153.439 2.60547C152.751 2.60547 152.22 2.87435 151.847 3.41211C151.473 3.94531 151.284 4.72917 151.279 5.76367V6.24902C151.279 7.2653 151.466 8.05371 151.84 8.61426C152.214 9.1748 152.751 9.45508 153.453 9.45508C154.141 9.45508 154.67 9.1862 155.039 8.64844C155.408 8.10612 155.595 7.31771 155.6 6.2832V5.79785ZM48.7949 23.2539H49.9229V24.8467H48.7949V27H46.8193V24.8467H42.7383L42.6494 23.6025L46.7988 17.0469H48.7949V23.2539ZM44.6182 23.2539H46.8193V19.7402L46.6895 19.9658L44.6182 23.2539ZM52.999 21.1484H54.0518C54.5531 21.1484 54.9245 21.0231 55.166 20.7725C55.4076 20.5218 55.5283 20.1891 55.5283 19.7744C55.5283 19.3734 55.4076 19.0612 55.166 18.8379C54.929 18.6146 54.6009 18.5029 54.1816 18.5029C53.8034 18.5029 53.4867 18.6077 53.2314 18.8174C52.9762 19.0225 52.8486 19.2913 52.8486 19.624H50.873C50.873 19.1045 51.012 18.6396 51.29 18.2295C51.5726 17.8148 51.9645 17.4912 52.4658 17.2588C52.9717 17.0264 53.5277 16.9102 54.1338 16.9102C55.1865 16.9102 56.0114 17.1631 56.6084 17.6689C57.2054 18.1702 57.5039 18.863 57.5039 19.7471C57.5039 20.2028 57.3649 20.6221 57.0869 21.0049C56.8089 21.3877 56.4443 21.6816 55.9932 21.8867C56.5537 22.0872 56.9707 22.388 57.2441 22.7891C57.5221 23.1901 57.6611 23.6641 57.6611 24.2109C57.6611 25.0951 57.3376 25.8037 56.6904 26.3369C56.0479 26.8701 55.1956 27.1367 54.1338 27.1367C53.1403 27.1367 52.3268 26.8747 51.6934 26.3506C51.0645 25.8265 50.75 25.1338 50.75 24.2725H52.7256C52.7256 24.6462 52.8646 24.9515 53.1426 25.1885C53.4251 25.4255 53.7715 25.5439 54.1816 25.5439C54.651 25.5439 55.0179 25.4209 55.2822 25.1748C55.5511 24.9242 55.6855 24.5938 55.6855 24.1836C55.6855 23.1901 55.1387 22.6934 54.0449 22.6934H52.999V21.1484ZM62.6855 22.9531C62.6855 21.9095 62.8245 20.916 63.1025 19.9727C63.3805 19.0293 63.7907 18.1953 64.333 17.4707C64.8753 16.7415 65.4632 16.2357 66.0967 15.9531L66.4795 17.0195C65.8141 17.5117 65.2946 18.2728 64.9209 19.3027C64.5472 20.3327 64.3604 21.5358 64.3604 22.9121V23.124C64.3604 24.5049 64.5449 25.7126 64.9141 26.7471C65.2832 27.7816 65.805 28.554 66.4795 29.0645L66.0967 30.1104C65.4769 29.8324 64.8981 29.3402 64.3604 28.6338C63.8271 27.932 63.4193 27.1208 63.1367 26.2002C62.8542 25.2796 62.7038 24.318 62.6855 23.3154V22.9531ZM72.2354 27H70.2598V19.3848L67.9014 20.1162V18.5098L72.0234 17.0332H72.2354V27ZM82.1748 22.8848C82.1748 24.2611 81.89 25.3138 81.3203 26.043C80.7507 26.7721 79.9167 27.1367 78.8184 27.1367C77.7337 27.1367 76.9043 26.779 76.3301 26.0635C75.7559 25.348 75.4619 24.3226 75.4482 22.9873V21.1553C75.4482 19.7653 75.7354 18.7103 76.3096 17.9902C76.8883 17.2702 77.7201 16.9102 78.8047 16.9102C79.8893 16.9102 80.7188 17.2679 81.293 17.9834C81.8672 18.6943 82.1611 19.7174 82.1748 21.0527V22.8848ZM80.1992 20.875C80.1992 20.0501 80.0853 19.4508 79.8574 19.0771C79.6341 18.6989 79.2832 18.5098 78.8047 18.5098C78.3398 18.5098 77.9958 18.6898 77.7725 19.0498C77.5537 19.4053 77.4375 19.9635 77.4238 20.7246V23.1445C77.4238 23.9557 77.5332 24.5596 77.752 24.9561C77.9753 25.348 78.3307 25.5439 78.8184 25.5439C79.3014 25.5439 79.6501 25.3548 79.8643 24.9766C80.0785 24.5983 80.1901 24.0195 80.1992 23.2402V20.875ZM90.002 19.6924C90.002 20.1755 89.8812 20.6038 89.6396 20.9775C89.3981 21.3512 89.0654 21.6497 88.6416 21.873C89.1247 22.1055 89.5075 22.4268 89.79 22.8369C90.0726 23.2425 90.2139 23.721 90.2139 24.2725C90.2139 25.1566 89.9131 25.8561 89.3115 26.3711C88.71 26.8815 87.8919 27.1367 86.8574 27.1367C85.8229 27.1367 85.0026 26.8792 84.3965 26.3643C83.7904 25.8493 83.4873 25.152 83.4873 24.2725C83.4873 23.721 83.6286 23.2402 83.9111 22.8301C84.1937 22.4199 84.5742 22.1009 85.0527 21.873C84.6289 21.6497 84.2962 21.3512 84.0547 20.9775C83.8177 20.6038 83.6992 20.1755 83.6992 19.6924C83.6992 18.8447 83.9818 18.1702 84.5469 17.6689C85.112 17.1631 85.8799 16.9102 86.8506 16.9102C87.8167 16.9102 88.5824 17.1608 89.1475 17.6621C89.7171 18.1589 90.002 18.8356 90.002 19.6924ZM88.2314 24.1289C88.2314 23.696 88.1061 23.3496 87.8555 23.0898C87.6048 22.8301 87.2676 22.7002 86.8438 22.7002C86.4245 22.7002 86.0895 22.8301 85.8389 23.0898C85.5882 23.3451 85.4629 23.6914 85.4629 24.1289C85.4629 24.5527 85.5859 24.8945 85.832 25.1543C86.0781 25.4141 86.4199 25.5439 86.8574 25.5439C87.2858 25.5439 87.6208 25.4186 87.8623 25.168C88.1084 24.9173 88.2314 24.571 88.2314 24.1289ZM88.0264 19.7881C88.0264 19.4007 87.9238 19.0908 87.7188 18.8584C87.5137 18.6214 87.2243 18.5029 86.8506 18.5029C86.4814 18.5029 86.1943 18.6169 85.9893 18.8447C85.7842 19.0726 85.6816 19.387 85.6816 19.7881C85.6816 20.1846 85.7842 20.5036 85.9893 20.7451C86.1943 20.9867 86.4837 21.1074 86.8574 21.1074C87.2311 21.1074 87.5182 20.9867 87.7188 20.7451C87.9238 20.5036 88.0264 20.1846 88.0264 19.7881ZM98.1982 25.5439C98.5628 25.5439 98.859 25.4437 99.0869 25.2432C99.3148 25.0426 99.4333 24.776 99.4424 24.4434H101.295C101.29 24.9447 101.154 25.4049 100.885 25.8242C100.616 26.2389 100.247 26.5625 99.7773 26.7949C99.3125 27.0228 98.7975 27.1367 98.2324 27.1367C97.1751 27.1367 96.3411 26.8018 95.7305 26.1318C95.1198 25.4574 94.8145 24.5277 94.8145 23.3428V23.2129C94.8145 22.0736 95.1175 21.1644 95.7236 20.4854C96.3298 19.8063 97.1615 19.4668 98.2188 19.4668C99.1439 19.4668 99.8844 19.7311 100.44 20.2598C101.001 20.7839 101.286 21.4834 101.295 22.3584H99.4424C99.4333 21.9756 99.3148 21.6657 99.0869 21.4287C98.859 21.1872 98.5583 21.0664 98.1846 21.0664C97.7243 21.0664 97.3757 21.235 97.1387 21.5723C96.9062 21.9049 96.79 22.4473 96.79 23.1992V23.4043C96.79 24.1654 96.9062 24.7122 97.1387 25.0449C97.3711 25.3776 97.7243 25.5439 98.1982 25.5439ZM104.275 19.6035L104.337 20.4307C104.861 19.7881 105.57 19.4668 106.463 19.4668C107.415 19.4668 108.069 19.8428 108.425 20.5947C108.944 19.8428 109.685 19.4668 110.646 19.4668C111.449 19.4668 112.046 19.7015 112.438 20.1709C112.829 20.6357 113.025 21.3376 113.025 22.2764V27H111.043V22.2832C111.043 21.8639 110.961 21.5586 110.797 21.3672C110.633 21.1712 110.343 21.0732 109.929 21.0732C109.336 21.0732 108.926 21.3558 108.698 21.9209L108.705 27H106.729V22.29C106.729 21.8617 106.645 21.5518 106.477 21.3604C106.308 21.1689 106.021 21.0732 105.615 21.0732C105.055 21.0732 104.649 21.3057 104.398 21.7705V27H102.423V19.6035H104.275ZM117.954 23.1104C117.954 24.1403 117.806 25.1315 117.51 26.084C117.214 27.0365 116.787 27.8773 116.231 28.6064C115.675 29.3356 115.081 29.8369 114.447 30.1104L114.064 29.0645C114.712 28.5768 115.222 27.8249 115.596 26.8086C115.969 25.7923 116.163 24.6234 116.177 23.3018V22.9395C116.177 21.5768 115.99 20.376 115.616 19.3369C115.247 18.2979 114.73 17.5186 114.064 16.999L114.447 15.9531C115.067 16.222 115.65 16.7096 116.197 17.416C116.749 18.1224 117.175 18.945 117.476 19.8838C117.781 20.8226 117.94 21.7956 117.954 22.8027V23.1104Z" fill="white"/>
</svg>
