<svg width="182" height="43" viewBox="0 0 182 43" fill="none" xmlns="http://www.w3.org/2000/svg">
<path d="M4.23047 0.78125L7.88281 11.0938L11.5156 0.78125H15.3633V15H12.4238V11.1133L12.7168 4.4043L8.87891 15H6.86719L3.03906 4.41406L3.33203 11.1133V15H0.402344V0.78125H4.23047ZM20.7148 15H17.8828V4.43359H20.7148V15ZM17.7168 1.69922C17.7168 1.27604 17.8568 0.927734 18.1367 0.654297C18.4232 0.380859 18.8105 0.244141 19.2988 0.244141C19.7806 0.244141 20.1647 0.380859 20.4512 0.654297C20.7376 0.927734 20.8809 1.27604 20.8809 1.69922C20.8809 2.12891 20.7344 2.48047 20.4414 2.75391C20.1549 3.02734 19.7741 3.16406 19.2988 3.16406C18.8236 3.16406 18.4395 3.02734 18.1465 2.75391C17.86 2.48047 17.7168 2.12891 17.7168 1.69922ZM31.1445 12.6465H37.3652V15H28.2148V0.78125H31.1445V12.6465ZM47.6094 8.83789H41.9844V12.6465H48.5859V15H39.0547V0.78125H48.5664V3.1543H41.9844V6.54297H47.6094V8.83789ZM50.3047 15V0.78125H54.6797C55.9297 0.78125 57.0462 1.06445 58.0293 1.63086C59.0189 2.19076 59.7904 2.99154 60.3438 4.0332C60.8971 5.06836 61.1738 6.24674 61.1738 7.56836V8.22266C61.1738 9.54427 60.9004 10.7194 60.3535 11.748C59.8132 12.7767 59.0482 13.5742 58.0586 14.1406C57.069 14.707 55.9525 14.9935 54.709 15H50.3047ZM53.2344 3.1543V12.6465H54.6504C55.7962 12.6465 56.6719 12.2721 57.2773 11.5234C57.8828 10.7747 58.1921 9.70378 58.2051 8.31055V7.55859C58.2051 6.11328 57.9056 5.01953 57.3066 4.27734C56.7077 3.52865 55.832 3.1543 54.6797 3.1543H53.2344ZM75.666 11.2695C75.666 10.7161 75.4707 10.293 75.0801 10C74.6895 9.70052 73.9863 9.38802 72.9707 9.0625C71.9551 8.73047 71.151 8.40495 70.5586 8.08594C68.944 7.21354 68.1367 6.03841 68.1367 4.56055C68.1367 3.79232 68.3516 3.10872 68.7812 2.50977C69.2174 1.9043 69.8392 1.43229 70.6465 1.09375C71.4603 0.755208 72.3717 0.585938 73.3809 0.585938C74.3965 0.585938 75.3014 0.771484 76.0957 1.14258C76.89 1.50716 77.5052 2.02474 77.9414 2.69531C78.3841 3.36589 78.6055 4.1276 78.6055 4.98047H75.6758C75.6758 4.32943 75.4707 3.82487 75.0605 3.4668C74.6504 3.10221 74.0742 2.91992 73.332 2.91992C72.6159 2.91992 72.0592 3.07292 71.6621 3.37891C71.265 3.67839 71.0664 4.07552 71.0664 4.57031C71.0664 5.03255 71.2975 5.41992 71.7598 5.73242C72.2285 6.04492 72.9154 6.33789 73.8203 6.61133C75.487 7.11263 76.7012 7.73438 77.4629 8.47656C78.2246 9.21875 78.6055 10.1432 78.6055 11.25C78.6055 12.4805 78.14 13.4473 77.209 14.1504C76.278 14.847 75.0247 15.1953 73.4492 15.1953C72.3555 15.1953 71.3594 14.9967 70.4609 14.5996C69.5625 14.196 68.8757 13.6458 68.4004 12.9492C67.9316 12.2526 67.6973 11.4453 67.6973 10.5273H70.6367C70.6367 12.0964 71.5742 12.8809 73.4492 12.8809C74.1458 12.8809 74.6895 12.7409 75.0801 12.4609C75.4707 12.1745 75.666 11.7773 75.666 11.2695ZM83.0586 4.43359L83.1465 5.61523C83.8952 4.69727 84.9076 4.23828 86.1836 4.23828C87.5443 4.23828 88.4785 4.77539 88.9863 5.84961C89.7285 4.77539 90.7865 4.23828 92.1602 4.23828C93.306 4.23828 94.1589 4.57357 94.7188 5.24414C95.2786 5.9082 95.5586 6.91081 95.5586 8.25195V15H92.7266V8.26172C92.7266 7.66276 92.6094 7.22656 92.375 6.95312C92.1406 6.67318 91.7272 6.5332 91.1348 6.5332C90.2884 6.5332 89.7025 6.93685 89.377 7.74414L89.3867 15H86.5645V8.27148C86.5645 7.65951 86.444 7.2168 86.2031 6.94336C85.9622 6.66992 85.5521 6.5332 84.9727 6.5332C84.1719 6.5332 83.5924 6.86523 83.2344 7.5293V15H80.4121V4.43359H83.0586ZM103.859 15C103.729 14.7461 103.635 14.4303 103.576 14.0527C102.893 14.8145 102.004 15.1953 100.91 15.1953C99.875 15.1953 99.0156 14.8958 98.332 14.2969C97.6549 13.6979 97.3164 12.9427 97.3164 12.0312C97.3164 10.9115 97.7298 10.0521 98.5566 9.45312C99.39 8.85417 100.591 8.55143 102.16 8.54492H103.459V7.93945C103.459 7.45117 103.332 7.06055 103.078 6.76758C102.831 6.47461 102.437 6.32812 101.896 6.32812C101.421 6.32812 101.047 6.44206 100.773 6.66992C100.507 6.89779 100.373 7.21029 100.373 7.60742H97.5508C97.5508 6.99544 97.7396 6.42904 98.1172 5.9082C98.4948 5.38737 99.0286 4.98047 99.7188 4.6875C100.409 4.38802 101.184 4.23828 102.043 4.23828C103.345 4.23828 104.377 4.56706 105.139 5.22461C105.907 5.87565 106.291 6.79362 106.291 7.97852V12.5586C106.298 13.5612 106.438 14.3197 106.711 14.834V15H103.859ZM101.525 13.0371C101.942 13.0371 102.326 12.946 102.678 12.7637C103.029 12.5749 103.29 12.3242 103.459 12.0117V10.1953H102.404C100.992 10.1953 100.24 10.6836 100.148 11.6602L100.139 11.8262C100.139 12.1777 100.262 12.4674 100.51 12.6953C100.757 12.9232 101.096 13.0371 101.525 13.0371ZM114.396 7.08008C114.012 7.02799 113.674 7.00195 113.381 7.00195C112.313 7.00195 111.613 7.36328 111.281 8.08594V15H108.459V4.43359H111.125L111.203 5.69336C111.77 4.72331 112.554 4.23828 113.557 4.23828C113.869 4.23828 114.162 4.2806 114.436 4.36523L114.396 7.08008ZM119.631 1.83594V4.43359H121.438V6.50391H119.631V11.7773C119.631 12.168 119.706 12.4479 119.855 12.6172C120.005 12.7865 120.292 12.8711 120.715 12.8711C121.027 12.8711 121.304 12.8483 121.545 12.8027V14.9414C120.992 15.1107 120.422 15.1953 119.836 15.1953C117.857 15.1953 116.848 14.196 116.809 12.1973V6.50391H115.266V4.43359H116.809V1.83594H119.631ZM138.293 3.1543H133.938V15H131.008V3.1543H126.711V0.78125H138.293V3.1543ZM145.383 11.4746L148.605 0.78125H151.867L146.916 15H143.859L138.928 0.78125H142.18L145.383 11.4746ZM166.242 9.64844H167.854V11.9238H166.242V15H163.42V11.9238H157.59L157.463 10.1465L163.391 0.78125H166.242V9.64844ZM160.275 9.64844H163.42V4.62891L163.234 4.95117L160.275 9.64844ZM177.707 12.0703H172.57L171.594 15H168.479L173.771 0.78125H176.486L181.809 15H178.693L177.707 12.0703ZM173.361 9.69727H176.916L175.129 4.375L173.361 9.69727ZM17.8535 32.9902V38H14.9238V23.7812H20.4707C21.5384 23.7812 22.4759 23.9766 23.2832 24.3672C24.097 24.7578 24.722 25.3145 25.1582 26.0371C25.5944 26.7533 25.8125 27.5703 25.8125 28.4883C25.8125 29.8815 25.334 30.9818 24.377 31.7891C23.4264 32.5898 22.1081 32.9902 20.4219 32.9902H17.8535ZM17.8535 30.6172H20.4707C21.2454 30.6172 21.8346 30.4349 22.2383 30.0703C22.6484 29.7057 22.8535 29.1849 22.8535 28.5078C22.8535 27.8112 22.6484 27.248 22.2383 26.8184C21.8281 26.3887 21.2617 26.1673 20.5391 26.1543H17.8535V30.6172ZM33.0977 32.7949H30.7637V38H27.834V23.7812H33.1172C34.7969 23.7812 36.0924 24.1556 37.0039 24.9043C37.9154 25.653 38.3711 26.7109 38.3711 28.0781C38.3711 29.0482 38.1595 29.8587 37.7363 30.5098C37.3197 31.1543 36.6849 31.6686 35.832 32.0527L38.9082 37.8633V38H35.7637L33.0977 32.7949ZM30.7637 30.4219H33.127C33.8626 30.4219 34.4323 30.2363 34.8359 29.8652C35.2396 29.4876 35.4414 28.9701 35.4414 28.3125C35.4414 27.6419 35.2493 27.1146 34.8652 26.7305C34.4876 26.3464 33.9049 26.1543 33.1172 26.1543H30.7637V30.4219ZM52.2871 31.2129C52.2871 32.6126 52.0397 33.8398 51.5449 34.8945C51.0501 35.9492 50.3405 36.763 49.416 37.3359C48.498 37.9089 47.4434 38.1953 46.252 38.1953C45.0736 38.1953 44.0221 37.9121 43.0977 37.3457C42.1732 36.7793 41.457 35.972 40.9492 34.9238C40.4414 33.8691 40.1842 32.6582 40.1777 31.291V30.5879C40.1777 29.1882 40.4284 27.9577 40.9297 26.8965C41.4375 25.8288 42.1504 25.0117 43.0684 24.4453C43.9928 23.8724 45.0475 23.5859 46.2324 23.5859C47.4173 23.5859 48.4688 23.8724 49.3867 24.4453C50.3112 25.0117 51.0241 25.8288 51.5254 26.8965C52.0332 27.9577 52.2871 29.1849 52.2871 30.5781V31.2129ZM49.3184 30.5684C49.3184 29.0775 49.0514 27.9447 48.5176 27.1699C47.9837 26.3952 47.222 26.0078 46.2324 26.0078C45.2493 26.0078 44.4909 26.3919 43.957 27.1602C43.4232 27.9219 43.153 29.0417 43.1465 30.5195V31.2129C43.1465 32.6647 43.4134 33.791 43.9473 34.5918C44.4811 35.3926 45.2493 35.793 46.252 35.793C47.235 35.793 47.9902 35.4089 48.5176 34.6406C49.0449 33.8659 49.3118 32.7396 49.3184 31.2617V30.5684ZM67.4434 32.6484H69.0547V34.9238H67.4434V38H64.6211V34.9238H58.791L58.6641 33.1465L64.5918 23.7812H67.4434V32.6484ZM61.4766 32.6484H64.6211V27.6289L64.4355 27.9512L61.4766 32.6484ZM73.4492 29.6406H74.9531C75.6693 29.6406 76.1999 29.4616 76.5449 29.1035C76.89 28.7454 77.0625 28.2702 77.0625 27.6777C77.0625 27.1048 76.89 26.6589 76.5449 26.3398C76.2064 26.0208 75.7376 25.8613 75.1387 25.8613C74.5983 25.8613 74.1458 26.0111 73.7812 26.3105C73.4167 26.6035 73.2344 26.9876 73.2344 27.4629H70.4121C70.4121 26.7207 70.6107 26.0566 71.0078 25.4707C71.4115 24.8783 71.9714 24.416 72.6875 24.084C73.4102 23.752 74.2044 23.5859 75.0703 23.5859C76.5742 23.5859 77.7526 23.9473 78.6055 24.6699C79.4583 25.3861 79.8848 26.3757 79.8848 27.6387C79.8848 28.2897 79.6862 28.8887 79.2891 29.4355C78.8919 29.9824 78.3711 30.4023 77.7266 30.6953C78.5273 30.9818 79.123 31.4115 79.5137 31.9844C79.9108 32.5573 80.1094 33.2344 80.1094 34.0156C80.1094 35.2786 79.6471 36.291 78.7227 37.0527C77.8047 37.8145 76.5872 38.1953 75.0703 38.1953C73.651 38.1953 72.4889 37.821 71.584 37.0723C70.6855 36.3236 70.2363 35.334 70.2363 34.1035H73.0586C73.0586 34.6374 73.2572 35.0736 73.6543 35.4121C74.0579 35.7507 74.5527 35.9199 75.1387 35.9199C75.8092 35.9199 76.3333 35.7441 76.7109 35.3926C77.0951 35.0345 77.2871 34.5625 77.2871 33.9766C77.2871 32.5573 76.5059 31.8477 74.9434 31.8477H73.4492V29.6406ZM87.2871 32.2188C87.2871 30.7279 87.4857 29.3086 87.8828 27.9609C88.2799 26.6133 88.8659 25.4219 89.6406 24.3867C90.4154 23.3451 91.2552 22.6224 92.1602 22.2188L92.707 23.7422C91.7565 24.4453 91.0143 25.5326 90.4805 27.0039C89.9466 28.4753 89.6797 30.194 89.6797 32.1602V32.4629C89.6797 34.4355 89.9434 36.1608 90.4707 37.6387C90.998 39.1165 91.7435 40.2201 92.707 40.9492L92.1602 42.4434C91.2747 42.0462 90.4479 41.3431 89.6797 40.334C88.918 39.3314 88.3353 38.1725 87.9316 36.8574C87.528 35.5423 87.3132 34.1686 87.2871 32.7363V32.2188ZM100.93 38H98.1074V27.1211L94.7383 28.166V25.8711L100.627 23.7617H100.93V38ZM115.129 32.1211C115.129 34.0872 114.722 35.5911 113.908 36.6328C113.094 37.6745 111.903 38.1953 110.334 38.1953C108.785 38.1953 107.6 37.6842 106.779 36.6621C105.959 35.64 105.539 34.1751 105.52 32.2676V29.6504C105.52 27.6647 105.93 26.1576 106.75 25.1289C107.577 24.1003 108.765 23.5859 110.314 23.5859C111.864 23.5859 113.049 24.097 113.869 25.1191C114.689 26.1348 115.109 27.5964 115.129 29.5039V32.1211ZM112.307 29.25C112.307 28.0716 112.144 27.2155 111.818 26.6816C111.499 26.1413 110.998 25.8711 110.314 25.8711C109.65 25.8711 109.159 26.1283 108.84 26.6426C108.527 27.1504 108.361 27.9479 108.342 29.0352V32.4922C108.342 33.651 108.498 34.5137 108.811 35.0801C109.13 35.64 109.637 35.9199 110.334 35.9199C111.024 35.9199 111.522 35.6497 111.828 35.1094C112.134 34.569 112.294 33.7422 112.307 32.6289V29.25ZM126.311 27.5605C126.311 28.2507 126.138 28.8626 125.793 29.3965C125.448 29.9303 124.973 30.3568 124.367 30.6758C125.057 31.0078 125.604 31.4668 126.008 32.0527C126.411 32.6322 126.613 33.3158 126.613 34.1035C126.613 35.3665 126.184 36.3659 125.324 37.1016C124.465 37.8307 123.296 38.1953 121.818 38.1953C120.34 38.1953 119.169 37.8275 118.303 37.0918C117.437 36.3561 117.004 35.36 117.004 34.1035C117.004 33.3158 117.206 32.6289 117.609 32.043C118.013 31.457 118.557 31.0013 119.24 30.6758C118.635 30.3568 118.16 29.9303 117.814 29.3965C117.476 28.8626 117.307 28.2507 117.307 27.5605C117.307 26.3496 117.71 25.3861 118.518 24.6699C119.325 23.9473 120.422 23.5859 121.809 23.5859C123.189 23.5859 124.283 23.944 125.09 24.6602C125.904 25.3698 126.311 26.3366 126.311 27.5605ZM123.781 33.8984C123.781 33.2799 123.602 32.7852 123.244 32.4141C122.886 32.043 122.404 31.8574 121.799 31.8574C121.2 31.8574 120.721 32.043 120.363 32.4141C120.005 32.7786 119.826 33.2734 119.826 33.8984C119.826 34.5039 120.002 34.9922 120.354 35.3633C120.705 35.7344 121.193 35.9199 121.818 35.9199C122.43 35.9199 122.909 35.7409 123.254 35.3828C123.605 35.0247 123.781 34.5299 123.781 33.8984ZM123.488 27.6973C123.488 27.1439 123.342 26.7012 123.049 26.3691C122.756 26.0306 122.342 25.8613 121.809 25.8613C121.281 25.8613 120.871 26.0241 120.578 26.3496C120.285 26.6751 120.139 27.1243 120.139 27.6973C120.139 28.2637 120.285 28.7194 120.578 29.0645C120.871 29.4095 121.285 29.582 121.818 29.582C122.352 29.582 122.762 29.4095 123.049 29.0645C123.342 28.7194 123.488 28.2637 123.488 27.6973ZM138.02 35.9199C138.54 35.9199 138.964 35.7767 139.289 35.4902C139.615 35.2038 139.784 34.8229 139.797 34.3477H142.443C142.437 35.0638 142.242 35.7214 141.857 36.3203C141.473 36.9128 140.946 37.375 140.275 37.707C139.611 38.0326 138.876 38.1953 138.068 38.1953C136.558 38.1953 135.367 37.7168 134.494 36.7598C133.622 35.7962 133.186 34.4681 133.186 32.7754V32.5898C133.186 30.9622 133.618 29.6634 134.484 28.6934C135.35 27.7233 136.538 27.2383 138.049 27.2383C139.37 27.2383 140.428 27.6159 141.223 28.3711C142.023 29.1198 142.43 30.1191 142.443 31.3691H139.797C139.784 30.8223 139.615 30.3796 139.289 30.041C138.964 29.696 138.534 29.5234 138 29.5234C137.342 29.5234 136.844 29.7643 136.506 30.2461C136.174 30.7214 136.008 31.4961 136.008 32.5703V32.8633C136.008 33.9505 136.174 34.7318 136.506 35.207C136.838 35.6823 137.342 35.9199 138.02 35.9199ZM146.701 27.4336L146.789 28.6152C147.538 27.6973 148.55 27.2383 149.826 27.2383C151.187 27.2383 152.121 27.7754 152.629 28.8496C153.371 27.7754 154.429 27.2383 155.803 27.2383C156.949 27.2383 157.801 27.5736 158.361 28.2441C158.921 28.9082 159.201 29.9108 159.201 31.252V38H156.369V31.2617C156.369 30.6628 156.252 30.2266 156.018 29.9531C155.783 29.6732 155.37 29.5332 154.777 29.5332C153.931 29.5332 153.345 29.9368 153.02 30.7441L153.029 38H150.207V31.2715C150.207 30.6595 150.087 30.2168 149.846 29.9434C149.605 29.6699 149.195 29.5332 148.615 29.5332C147.814 29.5332 147.235 29.8652 146.877 30.5293V38H144.055V27.4336H146.701ZM166.242 32.4434C166.242 33.9147 166.031 35.3307 165.607 36.6914C165.184 38.0521 164.576 39.2533 163.781 40.2949C162.987 41.3366 162.137 42.0527 161.232 42.4434L160.686 40.9492C161.61 40.2526 162.339 39.1784 162.873 37.7266C163.407 36.2747 163.684 34.6048 163.703 32.7168V32.1992C163.703 30.2526 163.436 28.5371 162.902 27.0527C162.375 25.5684 161.636 24.4551 160.686 23.7129L161.232 22.2188C162.118 22.6029 162.951 23.2995 163.732 24.3086C164.52 25.3177 165.129 26.4928 165.559 27.834C165.995 29.1751 166.223 30.5651 166.242 32.0039V32.4434Z" fill="white"/>
</svg>
