<svg width="203" height="104" viewBox="0 0 203 104" fill="none" xmlns="http://www.w3.org/2000/svg">
<path d="M17.1792 100.741H15.3384V95.358H13.0405V100.741H11.2061V93.8727H17.1792V100.741ZM24.7646 97.3702C24.7646 98.4282 24.5234 99.2767 24.041 99.9156C23.5628 100.55 22.9154 100.868 22.0986 100.868C21.4046 100.868 20.8439 100.627 20.4165 100.144V103.381H18.582V93.8727H20.2832L20.3467 94.5455C20.791 94.0123 21.3708 93.7457 22.0859 93.7457C22.9323 93.7457 23.5903 94.0589 24.0601 94.6852C24.5298 95.3115 24.7646 96.1748 24.7646 97.275V97.3702ZM22.9302 97.2369C22.9302 96.5979 22.8159 96.1049 22.5874 95.7579C22.3631 95.4109 22.0352 95.2374 21.6035 95.2374C21.028 95.2374 20.6323 95.4575 20.4165 95.8976V98.7096C20.6408 99.1624 21.0407 99.3888 21.6162 99.3888C22.4922 99.3888 22.9302 98.6715 22.9302 97.2369ZM30.0459 93.8727H31.8804V100.741H30.0459V96.5006L27.748 100.741H25.9072V93.8727H27.748V98.1066L30.0459 93.8727ZM39.6816 100.868C38.6745 100.868 37.8535 100.559 37.2188 99.941C36.5882 99.3232 36.2729 98.5001 36.2729 97.4718V97.2941C36.2729 96.6043 36.4062 95.9886 36.6729 95.4469C36.9395 94.901 37.3161 94.4821 37.8027 94.1901C38.2936 93.8938 38.8522 93.7457 39.4785 93.7457C40.418 93.7457 41.1564 94.042 41.6938 94.6344C42.2355 95.2268 42.5063 96.0669 42.5063 97.1544V97.9034H38.1328C38.1921 98.352 38.3698 98.7117 38.666 98.9825C38.9665 99.2534 39.3452 99.3888 39.8022 99.3888C40.509 99.3888 41.0612 99.1328 41.459 98.6207L42.3604 99.63C42.0853 100.019 41.7129 100.324 41.2432 100.544C40.7734 100.76 40.2529 100.868 39.6816 100.868ZM39.4722 95.2311C39.1082 95.2311 38.812 95.3538 38.5835 95.5992C38.3592 95.8447 38.2153 96.1959 38.1519 96.653H40.7036V96.507C40.6951 96.1007 40.5851 95.7876 40.3735 95.5675C40.1619 95.3432 39.8615 95.2311 39.4722 95.2311ZM43.6489 99.2618C44.0636 98.8217 44.3451 98.3859 44.4932 97.9542C44.6413 97.5226 44.7238 96.9111 44.7407 96.1198L44.7915 93.8727H49.8442V99.2618H50.8345V102.804H49V100.741H44.9312V102.804H43.0586V99.2618H43.6489ZM45.8135 99.2618H48.0161V95.3898H46.5879L46.5752 96.215C46.5371 97.476 46.2832 98.4917 45.8135 99.2618ZM55.792 93.8727H57.6265V100.741H55.792V96.5006L53.4941 100.741H51.6533V93.8727H53.4941V98.1066L55.792 93.8727ZM64.9834 100.741H63.1426V98.1002H60.8638V100.741H59.0293V93.8727H60.8638V96.6276H63.1426V93.8727H64.9834V100.741ZM66.1196 97.2433C66.1196 96.562 66.2508 95.9547 66.5132 95.4215C66.7756 94.8883 67.1522 94.4757 67.6431 94.1837C68.1382 93.8917 68.7116 93.7457 69.3633 93.7457C70.29 93.7457 71.0454 94.0293 71.6294 94.5963C72.2176 95.1634 72.5456 95.9336 72.6133 96.9069L72.626 97.3766C72.626 98.4303 72.3319 99.2767 71.7437 99.9156C71.1554 100.55 70.3662 100.868 69.376 100.868C68.3857 100.868 67.5944 100.55 67.002 99.9156C66.4137 99.2809 66.1196 98.4176 66.1196 97.3258V97.2433ZM67.9541 97.3766C67.9541 98.0283 68.0768 98.5276 68.3223 98.8746C68.5677 99.2174 68.9189 99.3888 69.376 99.3888C69.8203 99.3888 70.1673 99.2195 70.417 98.881C70.6667 98.5382 70.7915 97.9923 70.7915 97.2433C70.7915 96.6043 70.6667 96.1092 70.417 95.7579C70.1673 95.4067 69.8161 95.2311 69.3633 95.2311C68.9147 95.2311 68.5677 95.4067 68.3223 95.7579C68.0768 96.1049 67.9541 96.6445 67.9541 97.3766ZM73.8765 100.741V93.8727H76.7456C77.6808 93.8727 78.3981 94.0377 78.8975 94.3678C79.3968 94.6979 79.6465 95.1718 79.6465 95.7897C79.6465 96.1071 79.5407 96.3927 79.3291 96.6466C79.1217 96.8963 78.8171 97.0888 78.415 97.2242C78.9059 97.3173 79.291 97.5014 79.5703 97.7765C79.8538 98.0473 79.9956 98.3816 79.9956 98.7794C79.9956 99.4184 79.7544 99.9051 79.272 100.239C78.7938 100.574 78.0977 100.741 77.1836 100.741H73.8765ZM75.7109 97.8907V99.2745H77.1899C77.8374 99.2745 78.1611 99.0481 78.1611 98.5953C78.1611 98.1341 77.8522 97.8992 77.2344 97.8907H75.7109ZM75.7109 96.6593H76.8472C77.4904 96.6508 77.812 96.4435 77.812 96.0372C77.812 95.7876 77.7231 95.6098 77.5454 95.504C77.3719 95.3982 77.1053 95.3453 76.7456 95.3453H75.7109V96.6593ZM87.3018 97.3702C87.3018 98.4282 87.0605 99.2767 86.5781 99.9156C86.0999 100.55 85.4525 100.868 84.6357 100.868C83.9417 100.868 83.381 100.627 82.9536 100.144V103.381H81.1191V93.8727H82.8203L82.8838 94.5455C83.3281 94.0123 83.9079 93.7457 84.623 93.7457C85.4694 93.7457 86.1274 94.0589 86.5972 94.6852C87.0669 95.3115 87.3018 96.1748 87.3018 97.275V97.3702ZM85.4673 97.2369C85.4673 96.5979 85.353 96.1049 85.1245 95.7579C84.9002 95.4109 84.5723 95.2374 84.1406 95.2374C83.5651 95.2374 83.1694 95.4575 82.9536 95.8976V98.7096C83.1779 99.1624 83.5778 99.3888 84.1533 99.3888C85.0293 99.3888 85.4673 98.6715 85.4673 97.2369ZM91.6055 100.868C90.5983 100.868 89.7773 100.559 89.1426 99.941C88.512 99.3232 88.1968 98.5001 88.1968 97.4718V97.2941C88.1968 96.6043 88.3301 95.9886 88.5967 95.4469C88.8633 94.901 89.2399 94.4821 89.7266 94.1901C90.2174 93.8938 90.776 93.7457 91.4023 93.7457C92.3418 93.7457 93.0802 94.042 93.6177 94.6344C94.1593 95.2268 94.4302 96.0669 94.4302 97.1544V97.9034H90.0566C90.1159 98.352 90.2936 98.7117 90.5898 98.9825C90.8903 99.2534 91.269 99.3888 91.7261 99.3888C92.4328 99.3888 92.985 99.1328 93.3828 98.6207L94.2842 99.63C94.0091 100.019 93.6367 100.324 93.167 100.544C92.6973 100.76 92.1768 100.868 91.6055 100.868ZM91.396 95.2311C91.0321 95.2311 90.7358 95.3538 90.5073 95.5992C90.283 95.8447 90.1392 96.1959 90.0757 96.653H92.6274V96.507C92.619 96.1007 92.509 95.7876 92.2974 95.5675C92.0858 95.3432 91.7853 95.2311 91.396 95.2311ZM99.6606 98.5763L101.457 93.8727H103.755V100.741H101.92V96.526L100.276 100.741H99.0449L97.4326 96.5958V100.741H95.5981V93.8727H97.877L99.6606 98.5763ZM108.516 100.868C107.508 100.868 106.688 100.559 106.053 99.941C105.422 99.3232 105.107 98.5001 105.107 97.4718V97.2941C105.107 96.6043 105.24 95.9886 105.507 95.4469C105.773 94.901 106.15 94.4821 106.637 94.1901C107.128 93.8938 107.686 93.7457 108.312 93.7457C109.252 93.7457 109.99 94.042 110.528 94.6344C111.069 95.2268 111.34 96.0669 111.34 97.1544V97.9034H106.967C107.026 98.352 107.204 98.7117 107.5 98.9825C107.8 99.2534 108.179 99.3888 108.636 99.3888C109.343 99.3888 109.895 99.1328 110.293 98.6207L111.194 99.63C110.919 100.019 110.547 100.324 110.077 100.544C109.607 100.76 109.087 100.868 108.516 100.868ZM108.306 95.2311C107.942 95.2311 107.646 95.3538 107.417 95.5992C107.193 95.8447 107.049 96.1959 106.986 96.653H109.538V96.507C109.529 96.1007 109.419 95.7876 109.208 95.5675C108.996 95.3432 108.695 95.2311 108.306 95.2311ZM118.342 100.741H116.501V98.1002H114.222V100.741H112.388V93.8727H114.222V96.6276H116.501V93.8727H118.342V100.741ZM125.718 100.741H123.877V98.1002H121.598V100.741H119.764V93.8727H121.598V96.6276H123.877V93.8727H125.718V100.741ZM126.854 97.2433C126.854 96.562 126.985 95.9547 127.248 95.4215C127.51 94.8883 127.887 94.4757 128.377 94.1837C128.873 93.8917 129.446 93.7457 130.098 93.7457C131.024 93.7457 131.78 94.0293 132.364 94.5963C132.952 95.1634 133.28 95.9336 133.348 96.9069L133.36 97.3766C133.36 98.4303 133.066 99.2767 132.478 99.9156C131.89 100.55 131.101 100.868 130.11 100.868C129.12 100.868 128.329 100.55 127.736 99.9156C127.148 99.2809 126.854 98.4176 126.854 97.3258V97.2433ZM128.688 97.3766C128.688 98.0283 128.811 98.5276 129.057 98.8746C129.302 99.2174 129.653 99.3888 130.11 99.3888C130.555 99.3888 130.902 99.2195 131.151 98.881C131.401 98.5382 131.526 97.9923 131.526 97.2433C131.526 96.6043 131.401 96.1092 131.151 95.7579C130.902 95.4067 130.55 95.2311 130.098 95.2311C129.649 95.2311 129.302 95.4067 129.057 95.7579C128.811 96.1049 128.688 96.6445 128.688 97.3766ZM138.629 93.8727H140.463V100.741H138.629V96.5006L136.331 100.741H134.49V93.8727H136.331V98.1066L138.629 93.8727ZM139.708 91.0861C139.708 91.6489 139.505 92.1038 139.099 92.4508C138.697 92.7978 138.168 92.9713 137.512 92.9713C136.856 92.9713 136.325 92.7999 135.918 92.4572C135.516 92.1144 135.315 91.6573 135.315 91.0861H136.617C136.617 91.3527 136.695 91.56 136.852 91.7081C137.012 91.852 137.232 91.924 137.512 91.924C137.787 91.924 138.003 91.852 138.159 91.7081C138.316 91.56 138.394 91.3527 138.394 91.0861H139.708ZM144.818 97.2433C144.818 96.562 144.949 95.9547 145.211 95.4215C145.474 94.8883 145.85 94.4757 146.341 94.1837C146.836 93.8917 147.41 93.7457 148.062 93.7457C148.988 93.7457 149.744 94.0293 150.328 94.5963C150.916 95.1634 151.244 95.9336 151.312 96.9069L151.324 97.3766C151.324 98.4303 151.03 99.2767 150.442 99.9156C149.854 100.55 149.064 100.868 148.074 100.868C147.084 100.868 146.293 100.55 145.7 99.9156C145.112 99.2809 144.818 98.4176 144.818 97.3258V97.2433ZM146.652 97.3766C146.652 98.0283 146.775 98.5276 147.021 98.8746C147.266 99.2174 147.617 99.3888 148.074 99.3888C148.519 99.3888 148.866 99.2195 149.115 98.881C149.365 98.5382 149.49 97.9923 149.49 97.2433C149.49 96.6043 149.365 96.1092 149.115 95.7579C148.866 95.4067 148.514 95.2311 148.062 95.2311C147.613 95.2311 147.266 95.4067 147.021 95.7579C146.775 96.1049 146.652 96.6445 146.652 97.3766ZM158.427 100.741H156.586V95.358H154.289V100.741H152.454V93.8727H158.427V100.741ZM165.803 93.8727V100.741H163.969V95.358H162.35L162.236 97.4781C162.164 98.608 161.942 99.4311 161.569 99.9474C161.197 100.464 160.643 100.728 159.906 100.741H159.284L159.265 99.2491L159.494 99.2301C159.824 99.2047 160.065 99.0101 160.217 98.6461C160.37 98.2822 160.465 97.6622 160.503 96.7863L160.63 93.8727H165.803ZM171.199 100.741C171.114 100.576 171.053 100.371 171.015 100.125C170.57 100.62 169.993 100.868 169.282 100.868C168.609 100.868 168.05 100.673 167.606 100.284C167.166 99.8945 166.946 99.4036 166.946 98.8112C166.946 98.0833 167.215 97.5247 167.752 97.1354C168.294 96.7461 169.074 96.5493 170.094 96.545H170.938V96.1515C170.938 95.8341 170.856 95.5802 170.691 95.3898C170.53 95.1993 170.274 95.1041 169.923 95.1041C169.614 95.1041 169.371 95.1782 169.193 95.3263C169.019 95.4744 168.933 95.6775 168.933 95.9357H167.098C167.098 95.5379 167.221 95.1697 167.466 94.8312C167.712 94.4926 168.059 94.2281 168.507 94.0377C168.956 93.8431 169.459 93.7457 170.018 93.7457C170.864 93.7457 171.535 93.9594 172.03 94.3868C172.53 94.81 172.779 95.4067 172.779 96.1769V99.1539C172.784 99.8056 172.875 100.299 173.052 100.633V100.741H171.199ZM169.682 99.465C169.952 99.465 170.202 99.4057 170.431 99.2872C170.659 99.1645 170.828 99.0016 170.938 98.7985V97.6178H170.253C169.335 97.6178 168.846 97.9352 168.787 98.5699L168.78 98.6779C168.78 98.9064 168.861 99.0947 169.021 99.2428C169.182 99.3909 169.402 99.465 169.682 99.465ZM179.787 95.3453H177.584V100.741H175.744V95.3453H173.579V93.8727H179.787V95.3453ZM183.469 100.868C182.462 100.868 181.641 100.559 181.006 99.941C180.375 99.3232 180.06 98.5001 180.06 97.4718V97.2941C180.06 96.6043 180.193 95.9886 180.46 95.4469C180.727 94.901 181.103 94.4821 181.59 94.1901C182.081 93.8938 182.639 93.7457 183.266 93.7457C184.205 93.7457 184.944 94.042 185.481 94.6344C186.023 95.2268 186.293 96.0669 186.293 97.1544V97.9034H181.92C181.979 98.352 182.157 98.7117 182.453 98.9825C182.754 99.2534 183.132 99.3888 183.589 99.3888C184.296 99.3888 184.848 99.1328 185.246 98.6207L186.147 99.63C185.872 100.019 185.5 100.324 185.03 100.544C184.561 100.76 184.04 100.868 183.469 100.868ZM183.259 95.2311C182.895 95.2311 182.599 95.3538 182.371 95.5992C182.146 95.8447 182.002 96.1959 181.939 96.653H184.491V96.507C184.482 96.1007 184.372 95.7876 184.161 95.5675C183.949 95.3432 183.649 95.2311 183.259 95.2311Z" fill="#FFF8F4"/>
<path d="M30.9663 83H18.5884V43.5957L6.43018 47.1479V37.7729L29.8311 29.6797H30.9663V83ZM84.0669 61.2104C84.0669 68.4126 82.4434 73.9668 79.1963 77.873C75.9736 81.7793 71.4204 83.7324 65.5366 83.7324C59.604 83.7324 55.0142 81.7671 51.7671 77.8364C48.52 73.9058 46.8965 68.3638 46.8965 61.2104V51.4692C46.8965 44.2671 48.5078 38.7129 51.7305 34.8066C54.9775 30.9004 59.5552 28.9473 65.4634 28.9473C71.3716 28.9473 75.9492 30.9126 79.1963 34.8433C82.4434 38.7739 84.0669 44.3281 84.0669 51.5059V61.2104ZM71.7256 49.8945C71.7256 46.0615 71.2251 43.2051 70.2241 41.3252C69.2231 39.4209 67.6362 38.4688 65.4634 38.4688C63.3394 38.4688 61.7891 39.3477 60.8125 41.1055C59.8604 42.8633 59.3477 45.5244 59.2744 49.0889V62.7119C59.2744 66.6914 59.7749 69.6089 60.7759 71.4644C61.7769 73.2954 63.3638 74.2109 65.5366 74.2109C67.6362 74.2109 69.1865 73.3198 70.1875 71.5376C71.1885 69.731 71.7012 66.9111 71.7256 63.0781V49.8945ZM127.5 61.2104C127.5 68.4126 125.876 73.9668 122.629 77.873C119.406 81.7793 114.853 83.7324 108.969 83.7324C103.037 83.7324 98.4468 81.7671 95.1997 77.8364C91.9526 73.9058 90.3291 68.3638 90.3291 61.2104V51.4692C90.3291 44.2671 91.9404 38.7129 95.1631 34.8066C98.4102 30.9004 102.988 28.9473 108.896 28.9473C114.804 28.9473 119.382 30.9126 122.629 34.8433C125.876 38.7739 127.5 44.3281 127.5 51.5059V61.2104ZM115.158 49.8945C115.158 46.0615 114.658 43.2051 113.657 41.3252C112.656 39.4209 111.069 38.4688 108.896 38.4688C106.772 38.4688 105.222 39.3477 104.245 41.1055C103.293 42.8633 102.78 45.5244 102.707 49.0889V62.7119C102.707 66.6914 103.208 69.6089 104.208 71.4644C105.209 73.2954 106.796 74.2109 108.969 74.2109C111.069 74.2109 112.619 73.3198 113.62 71.5376C114.621 69.731 115.134 66.9111 115.158 63.0781V49.8945Z" fill="white"/>
<path d="M142.199 75.9602V80.97H139.27V66.7512H144.816C145.884 66.7512 146.822 66.9465 147.629 67.3372C148.443 67.7278 149.068 68.2844 149.504 69.0071C149.94 69.7232 150.158 70.5403 150.158 71.4583C150.158 72.8515 149.68 73.9517 148.723 74.759C147.772 75.5598 146.454 75.9602 144.768 75.9602H142.199ZM142.199 73.5872H144.816C145.591 73.5872 146.18 73.4049 146.584 73.0403C146.994 72.6757 147.199 72.1549 147.199 71.4778C147.199 70.7812 146.994 70.218 146.584 69.7883C146.174 69.3586 145.607 69.1373 144.885 69.1243H142.199V73.5872ZM157.512 73.47L160.1 66.7512H163.264L158.293 78.4797L157.893 79.2512C157.157 80.5338 156.031 81.175 154.514 81.175L153.488 81.136L153.459 78.7825C153.615 78.8085 153.869 78.8215 154.221 78.8215C154.631 78.8215 154.96 78.7499 155.207 78.6067C155.461 78.4635 155.673 78.1998 155.842 77.8157L156.203 76.8879L151.213 66.7512H154.367L157.512 73.47ZM174.094 69.1243H167.746V71.8782H170.031C171.704 71.8782 173.029 72.2851 174.006 73.0989C174.989 73.9062 175.48 74.9967 175.48 76.3704C175.48 77.7506 174.992 78.8606 174.016 79.7004C173.046 80.5338 171.753 80.9569 170.139 80.97H164.787V66.7512H174.094V69.1243ZM167.746 74.2415V78.6165H170.08C170.829 78.6165 171.424 78.4114 171.867 78.0012C172.316 77.5911 172.541 77.0409 172.541 76.3508C172.541 75.7063 172.326 75.1985 171.896 74.8274C171.473 74.4498 170.891 74.2545 170.148 74.2415H167.746ZM177.316 79.5833C177.316 79.134 177.466 78.7694 177.766 78.4895C178.072 78.2096 178.452 78.0696 178.908 78.0696C179.37 78.0696 179.751 78.2096 180.051 78.4895C180.357 78.7694 180.51 79.134 180.51 79.5833C180.51 80.026 180.36 80.3873 180.061 80.6672C179.761 80.9407 179.377 81.0774 178.908 81.0774C178.446 81.0774 178.065 80.9407 177.766 80.6672C177.466 80.3873 177.316 80.026 177.316 79.5833ZM201.408 74.9055H188.146V72.9915H201.408V74.9055Z" fill="#FFF8F4"/>
<path d="M20.4316 13.2637C20.321 14.7936 19.7546 15.998 18.7324 16.877C17.7168 17.7559 16.3757 18.1953 14.709 18.1953C12.8861 18.1953 11.4505 17.5833 10.4023 16.3594C9.36068 15.1289 8.83984 13.4427 8.83984 11.3008V10.4316C8.83984 9.06445 9.08073 7.86003 9.5625 6.81836C10.0443 5.77669 10.7311 4.97917 11.623 4.42578C12.5215 3.86589 13.5632 3.58594 14.748 3.58594C16.3887 3.58594 17.7103 4.02539 18.7129 4.9043C19.7155 5.7832 20.2949 7.01693 20.4512 8.60547H17.5215C17.4499 7.6875 17.1927 7.02344 16.75 6.61328C16.3138 6.19661 15.6465 5.98828 14.748 5.98828C13.7715 5.98828 13.0391 6.33984 12.5508 7.04297C12.069 7.73958 11.8216 8.82357 11.8086 10.2949V11.3691C11.8086 12.9056 12.0397 14.0286 12.502 14.7383C12.9707 15.4479 13.7064 15.8027 14.709 15.8027C15.6139 15.8027 16.2878 15.5977 16.7305 15.1875C17.1797 14.7708 17.4368 14.1296 17.502 13.2637H20.4316ZM26.9941 12.1895H25.3047V18H22.375V3.78125H25.3047V9.47461H26.6426L30.1191 3.78125H33.6934L29.3086 10.5098L34.1523 18H30.6562L26.9941 12.1895ZM43.8105 3.78125H46.75V18H43.8105V8.55664L38.1172 18H35.1875V3.78125H38.1172V13.2441L43.8105 3.78125ZM62.6875 21.4961H59.9824V18H51.4082V21.4863H48.6348L48.4785 15.6465H49.5527C50.1322 15.1647 50.5781 14.4583 50.8906 13.5273C51.2096 12.5898 51.4245 11.431 51.5352 10.0508L51.9453 3.78125H61.2617V15.6465H62.9219L62.6875 21.4961ZM52.9121 15.6465H58.332V6.1543H54.7285L54.4844 9.89453C54.2891 12.401 53.765 14.3184 52.9121 15.6465ZM69.1035 12.1895H67.4141V18H64.4844V3.78125H67.4141V9.47461H68.752L72.2285 3.78125H75.8027L71.418 10.5098L76.2617 18H72.7656L69.1035 12.1895ZM85.4219 15.0703H80.2852L79.3086 18H76.1934L81.4863 3.78125H84.2012L89.5234 18H86.4082L85.4219 15.0703ZM81.0762 12.6973H84.6309L82.8438 7.375L81.0762 12.6973Z" fill="#FFF8F4"/>
</svg>
