<svg width="100" height="38" viewBox="0 0 100 38" fill="none" xmlns="http://www.w3.org/2000/svg">
<path d="M9.4834 1.99609H3.57715V13H1.3623V0.203125H9.4834V1.99609ZM9.37793 8.15723C9.37793 7.22559 9.5625 6.3877 9.93164 5.64355C10.3008 4.89355 10.8193 4.31934 11.4873 3.9209C12.1553 3.5166 12.9229 3.31445 13.79 3.31445C15.0732 3.31445 16.1133 3.72754 16.9102 4.55371C17.7129 5.37988 18.1465 6.47559 18.2109 7.84082L18.2197 8.3418C18.2197 9.2793 18.0381 10.1172 17.6748 10.8555C17.3174 11.5938 16.8018 12.165 16.1279 12.5693C15.46 12.9736 14.6865 13.1758 13.8076 13.1758C12.4658 13.1758 11.3906 12.7305 10.582 11.8398C9.7793 10.9434 9.37793 9.75098 9.37793 8.2627V8.15723ZM11.5137 8.3418C11.5137 9.32031 11.7158 10.0879 12.1201 10.6445C12.5244 11.1953 13.0869 11.4707 13.8076 11.4707C14.5283 11.4707 15.0879 11.1895 15.4863 10.627C15.8906 10.0645 16.0928 9.24121 16.0928 8.15723C16.0928 7.19629 15.8848 6.43457 15.4688 5.87207C15.0586 5.30957 14.499 5.02832 13.79 5.02832C13.0928 5.02832 12.5391 5.30664 12.1289 5.86328C11.7188 6.41406 11.5137 7.24023 11.5137 8.3418ZM27.9668 3.49023V13H25.8311V5.21289H23.1416L22.9658 8.52637C22.8545 10.1201 22.5469 11.2656 22.043 11.9629C21.5449 12.6543 20.7803 13 19.749 13H19.0898L19.0811 11.2246L19.5205 11.1807C19.9893 11.1162 20.3291 10.832 20.54 10.3281C20.7568 9.81836 20.8945 8.89258 20.9531 7.55078L21.1289 3.49023H27.9668ZM29.8389 8.15723C29.8389 7.22559 30.0234 6.3877 30.3926 5.64355C30.7617 4.89355 31.2803 4.31934 31.9482 3.9209C32.6162 3.5166 33.3838 3.31445 34.251 3.31445C35.5342 3.31445 36.5742 3.72754 37.3711 4.55371C38.1738 5.37988 38.6074 6.47559 38.6719 7.84082L38.6807 8.3418C38.6807 9.2793 38.499 10.1172 38.1357 10.8555C37.7783 11.5938 37.2627 12.165 36.5889 12.5693C35.9209 12.9736 35.1475 13.1758 34.2686 13.1758C32.9268 13.1758 31.8516 12.7305 31.043 11.8398C30.2402 10.9434 29.8389 9.75098 29.8389 8.2627V8.15723ZM31.9746 8.3418C31.9746 9.32031 32.1768 10.0879 32.5811 10.6445C32.9854 11.1953 33.5479 11.4707 34.2686 11.4707C34.9893 11.4707 35.5488 11.1895 35.9473 10.627C36.3516 10.0645 36.5537 9.24121 36.5537 8.15723C36.5537 7.19629 36.3457 6.43457 35.9297 5.87207C35.5195 5.30957 34.96 5.02832 34.251 5.02832C33.5537 5.02832 33 5.30664 32.5898 5.86328C32.1797 6.41406 31.9746 7.24023 31.9746 8.3418ZM44.3936 11.4707C44.9268 11.4707 45.3691 11.3154 45.7207 11.0049C46.0723 10.6943 46.2598 10.3105 46.2832 9.85352H48.2959C48.2725 10.4453 48.0879 10.999 47.7422 11.5146C47.3965 12.0244 46.9277 12.4287 46.3359 12.7275C45.7441 13.0264 45.1055 13.1758 44.4199 13.1758C43.0898 13.1758 42.0352 12.7451 41.2559 11.8838C40.4766 11.0225 40.0869 9.83301 40.0869 8.31543V8.0957C40.0869 6.64844 40.4736 5.49121 41.2471 4.62402C42.0205 3.75098 43.0752 3.31445 44.4111 3.31445C45.542 3.31445 46.4619 3.64551 47.1709 4.30762C47.8857 4.96387 48.2607 5.82812 48.2959 6.90039H46.2832C46.2598 6.35547 46.0723 5.90723 45.7207 5.55566C45.375 5.2041 44.9326 5.02832 44.3936 5.02832C43.7021 5.02832 43.1689 5.28027 42.7939 5.78418C42.4189 6.28223 42.2285 7.04102 42.2227 8.06055V8.40332C42.2227 9.43457 42.4072 10.2051 42.7764 10.7148C43.1514 11.2188 43.6904 11.4707 44.3936 11.4707ZM49.5088 8.15723C49.5088 7.22559 49.6934 6.3877 50.0625 5.64355C50.4316 4.89355 50.9502 4.31934 51.6182 3.9209C52.2861 3.5166 53.0537 3.31445 53.9209 3.31445C55.2041 3.31445 56.2441 3.72754 57.041 4.55371C57.8438 5.37988 58.2773 6.47559 58.3418 7.84082L58.3506 8.3418C58.3506 9.2793 58.1689 10.1172 57.8057 10.8555C57.4482 11.5938 56.9326 12.165 56.2588 12.5693C55.5908 12.9736 54.8174 13.1758 53.9385 13.1758C52.5967 13.1758 51.5215 12.7305 50.7129 11.8398C49.9102 10.9434 49.5088 9.75098 49.5088 8.2627V8.15723ZM51.6445 8.3418C51.6445 9.32031 51.8467 10.0879 52.251 10.6445C52.6553 11.1953 53.2178 11.4707 53.9385 11.4707C54.6592 11.4707 55.2188 11.1895 55.6172 10.627C56.0215 10.0645 56.2236 9.24121 56.2236 8.15723C56.2236 7.19629 56.0156 6.43457 55.5996 5.87207C55.1895 5.30957 54.6299 5.02832 53.9209 5.02832C53.2236 5.02832 52.6699 5.30664 52.2598 5.86328C51.8496 6.41406 51.6445 7.24023 51.6445 8.3418ZM60.3193 13V3.49023H64.1777C65.4785 3.49023 66.4688 3.71875 67.1484 4.17578C67.8281 4.62695 68.168 5.27734 68.168 6.12695C68.168 6.56641 68.0303 6.96191 67.7549 7.31348C67.4854 7.65918 67.084 7.92578 66.5508 8.11328C67.1719 8.24219 67.6641 8.50293 68.0273 8.89551C68.3906 9.28809 68.5723 9.75098 68.5723 10.2842C68.5723 11.1689 68.2441 11.8428 67.5879 12.3057C66.9375 12.7686 66 13 64.7754 13H60.3193ZM62.4551 8.94824V11.3125H64.793C65.8887 11.3125 66.4365 10.9199 66.4365 10.1348C66.4365 9.34375 65.8799 8.94824 64.7666 8.94824H62.4551ZM62.4551 7.41895H64.2129C65.4258 7.41895 66.0322 7.06152 66.0322 6.34668C66.0322 5.59668 65.458 5.20996 64.3096 5.18652H62.4551V7.41895ZM70.0225 8.15723C70.0225 7.22559 70.207 6.3877 70.5762 5.64355C70.9453 4.89355 71.4639 4.31934 72.1318 3.9209C72.7998 3.5166 73.5674 3.31445 74.4346 3.31445C75.7178 3.31445 76.7578 3.72754 77.5547 4.55371C78.3574 5.37988 78.791 6.47559 78.8555 7.84082L78.8643 8.3418C78.8643 9.2793 78.6826 10.1172 78.3193 10.8555C77.9619 11.5938 77.4463 12.165 76.7725 12.5693C76.1045 12.9736 75.3311 13.1758 74.4521 13.1758C73.1104 13.1758 72.0352 12.7305 71.2266 11.8398C70.4238 10.9434 70.0225 9.75098 70.0225 8.2627V8.15723ZM72.1582 8.3418C72.1582 9.32031 72.3604 10.0879 72.7646 10.6445C73.1689 11.1953 73.7314 11.4707 74.4521 11.4707C75.1729 11.4707 75.7324 11.1895 76.1309 10.627C76.5352 10.0645 76.7373 9.24121 76.7373 8.15723C76.7373 7.19629 76.5293 6.43457 76.1133 5.87207C75.7031 5.30957 75.1436 5.02832 74.4346 5.02832C73.7373 5.02832 73.1836 5.30664 72.7734 5.86328C72.3633 6.41406 72.1582 7.24023 72.1582 8.3418ZM84.8584 13.1758C83.5049 13.1758 82.4062 12.751 81.5625 11.9014C80.7246 11.0459 80.3057 9.90918 80.3057 8.49121V8.22754C80.3057 7.27832 80.4873 6.43164 80.8506 5.6875C81.2197 4.9375 81.7354 4.35449 82.3975 3.93848C83.0596 3.52246 83.7979 3.31445 84.6123 3.31445C85.9072 3.31445 86.9062 3.72754 87.6094 4.55371C88.3184 5.37988 88.6729 6.54883 88.6729 8.06055V8.92188H82.459C82.5234 9.70703 82.7842 10.3281 83.2412 10.7852C83.7041 11.2422 84.2842 11.4707 84.9814 11.4707C85.96 11.4707 86.7568 11.0752 87.3721 10.2842L88.5234 11.3828C88.1426 11.9512 87.6328 12.3936 86.9941 12.71C86.3613 13.0205 85.6494 13.1758 84.8584 13.1758ZM84.6035 5.02832C84.0176 5.02832 83.543 5.2334 83.1797 5.64355C82.8223 6.05371 82.5938 6.625 82.4941 7.35742H86.5635V7.19922C86.5166 6.48438 86.3262 5.94531 85.9922 5.58203C85.6582 5.21289 85.1953 5.02832 84.6035 5.02832ZM4.4209 30.9414L6.35449 24.4902H8.63086L4.85156 35.4414C4.27148 37.041 3.28711 37.8408 1.89844 37.8408C1.58789 37.8408 1.24512 37.7881 0.870117 37.6826V36.0303L1.27441 36.0566C1.81348 36.0566 2.21777 35.957 2.4873 35.7578C2.7627 35.5645 2.97949 35.2363 3.1377 34.7734L3.44531 33.9561L0.105469 24.4902H2.4082L4.4209 30.9414ZM17.9297 34H15.7939V26.2129H12.085V34H9.94922V24.4902H17.9297V34ZM28.5293 29.3418C28.5293 30.8125 28.1953 31.9873 27.5273 32.8662C26.8594 33.7393 25.9629 34.1758 24.8379 34.1758C23.7949 34.1758 22.96 33.833 22.333 33.1475V37.6562H20.1973V24.4902H22.166L22.2539 25.457C22.8809 24.6953 23.7334 24.3145 24.8115 24.3145C25.9717 24.3145 26.8799 24.748 27.5361 25.6152C28.1982 26.4766 28.5293 27.6748 28.5293 29.21V29.3418ZM26.4023 29.1572C26.4023 28.208 26.2119 27.4551 25.8311 26.8984C25.4561 26.3418 24.917 26.0635 24.2139 26.0635C23.3408 26.0635 22.7139 26.4238 22.333 27.1445V31.3633C22.7197 32.1016 23.3525 32.4707 24.2314 32.4707C24.9111 32.4707 25.4414 32.1982 25.8223 31.6533C26.209 31.1025 26.4023 30.2705 26.4023 29.1572ZM36.0264 34C35.9326 33.8184 35.8506 33.5225 35.7803 33.1123C35.1006 33.8213 34.2686 34.1758 33.2842 34.1758C32.3291 34.1758 31.5498 33.9033 30.9463 33.3584C30.3428 32.8135 30.041 32.1396 30.041 31.3369C30.041 30.3232 30.416 29.5469 31.166 29.0078C31.9219 28.4629 33 28.1904 34.4004 28.1904H35.71V27.5664C35.71 27.0742 35.5723 26.6816 35.2969 26.3887C35.0215 26.0898 34.6025 25.9404 34.04 25.9404C33.5537 25.9404 33.1553 26.0635 32.8447 26.3096C32.5342 26.5498 32.3789 26.8574 32.3789 27.2324H30.2432C30.2432 26.7109 30.416 26.2246 30.7617 25.7734C31.1074 25.3164 31.5762 24.959 32.168 24.7012C32.7656 24.4434 33.4307 24.3145 34.1631 24.3145C35.2764 24.3145 36.1641 24.5957 36.8262 25.1582C37.4883 25.7148 37.8281 26.5 37.8457 27.5137V31.8027C37.8457 32.6582 37.9658 33.3408 38.2061 33.8506V34H36.0264ZM33.6797 32.4619C34.1016 32.4619 34.4971 32.3594 34.8662 32.1543C35.2412 31.9492 35.5225 31.6738 35.71 31.3281V29.5352H34.5586C33.7676 29.5352 33.1729 29.6729 32.7744 29.9482C32.376 30.2236 32.1768 30.6133 32.1768 31.1172C32.1768 31.5273 32.3115 31.8555 32.5811 32.1016C32.8564 32.3418 33.2227 32.4619 33.6797 32.4619ZM40.2451 34V24.4902H44.1035C45.4043 24.4902 46.3945 24.7188 47.0742 25.1758C47.7539 25.627 48.0938 26.2773 48.0938 27.127C48.0938 27.5664 47.9561 27.9619 47.6807 28.3135C47.4111 28.6592 47.0098 28.9258 46.4766 29.1133C47.0977 29.2422 47.5898 29.5029 47.9531 29.8955C48.3164 30.2881 48.498 30.751 48.498 31.2842C48.498 32.1689 48.1699 32.8428 47.5137 33.3057C46.8633 33.7686 45.9258 34 44.7012 34H40.2451ZM42.3809 29.9482V32.3125H44.7188C45.8145 32.3125 46.3623 31.9199 46.3623 31.1348C46.3623 30.3438 45.8057 29.9482 44.6924 29.9482H42.3809ZM42.3809 28.4189H44.1387C45.3516 28.4189 45.958 28.0615 45.958 27.3467C45.958 26.5967 45.3838 26.21 44.2354 26.1865H42.3809V28.4189ZM58.4297 24.4902V34H56.2939V26.2129H53.6045L53.4287 29.5264C53.3174 31.1201 53.0098 32.2656 52.5059 32.9629C52.0078 33.6543 51.2432 34 50.2119 34H49.5527L49.5439 32.2246L49.9834 32.1807C50.4521 32.1162 50.792 31.832 51.0029 31.3281C51.2197 30.8184 51.3574 29.8926 51.416 28.5508L51.5918 24.4902H58.4297ZM64.8896 34.1758C63.5361 34.1758 62.4375 33.751 61.5938 32.9014C60.7559 32.0459 60.3369 30.9092 60.3369 29.4912V29.2275C60.3369 28.2783 60.5186 27.4316 60.8818 26.6875C61.251 25.9375 61.7666 25.3545 62.4287 24.9385C63.0908 24.5225 63.8291 24.3145 64.6436 24.3145C65.9385 24.3145 66.9375 24.7275 67.6406 25.5537C68.3496 26.3799 68.7041 27.5488 68.7041 29.0605V29.9219H62.4902C62.5547 30.707 62.8154 31.3281 63.2725 31.7852C63.7354 32.2422 64.3154 32.4707 65.0127 32.4707C65.9912 32.4707 66.7881 32.0752 67.4033 31.2842L68.5547 32.3828C68.1738 32.9512 67.6641 33.3936 67.0254 33.71C66.3926 34.0205 65.6807 34.1758 64.8896 34.1758ZM64.6348 26.0283C64.0488 26.0283 63.5742 26.2334 63.2109 26.6436C62.8535 27.0537 62.625 27.625 62.5254 28.3574H66.5947V28.1992C66.5479 27.4844 66.3574 26.9453 66.0234 26.582C65.6895 26.2129 65.2266 26.0283 64.6348 26.0283ZM78.4248 34H76.2891V30.1592H72.5889V34H70.4531V24.4902H72.5889V28.4541H76.2891V24.4902H78.4248V34ZM86.6426 24.4902H88.7695V34H86.6426V27.6543L82.916 34H80.7891V24.4902H82.916V30.8359L86.6426 24.4902ZM95.2295 34.1758C93.876 34.1758 92.7773 33.751 91.9336 32.9014C91.0957 32.0459 90.6768 30.9092 90.6768 29.4912V29.2275C90.6768 28.2783 90.8584 27.4316 91.2217 26.6875C91.5908 25.9375 92.1064 25.3545 92.7686 24.9385C93.4307 24.5225 94.1689 24.3145 94.9834 24.3145C96.2783 24.3145 97.2773 24.7275 97.9805 25.5537C98.6895 26.3799 99.0439 27.5488 99.0439 29.0605V29.9219H92.8301C92.8945 30.707 93.1553 31.3281 93.6123 31.7852C94.0752 32.2422 94.6553 32.4707 95.3525 32.4707C96.3311 32.4707 97.1279 32.0752 97.7432 31.2842L98.8945 32.3828C98.5137 32.9512 98.0039 33.3936 97.3652 33.71C96.7324 34.0205 96.0205 34.1758 95.2295 34.1758ZM94.9746 26.0283C94.3887 26.0283 93.9141 26.2334 93.5508 26.6436C93.1934 27.0537 92.9648 27.625 92.8652 28.3574H96.9346V28.1992C96.8877 27.4844 96.6973 26.9453 96.3633 26.582C96.0293 26.2129 95.5664 26.0283 94.9746 26.0283Z" fill="white"/>
</svg>
