<svg width="148" height="10" viewBox="0 0 148 10" fill="none" xmlns="http://www.w3.org/2000/svg">
<path d="M2.06348 3.30273L0.530273 2.86816L0.818359 1.98438L2.33691 2.59473L2.23926 0.890625H3.19629L3.09863 2.62891L4.57812 2.02832L4.86621 2.92188L3.30371 3.35645L4.3291 4.65527L3.55273 5.20703L2.66406 3.78125L1.78516 5.1582L1.00879 4.63086L2.06348 3.30273ZM11.1455 5.63184C11.0902 6.39681 10.807 6.99902 10.2959 7.43848C9.78809 7.87793 9.11751 8.09766 8.28418 8.09766C7.37272 8.09766 6.65495 7.79167 6.13086 7.17969C5.61003 6.56445 5.34961 5.72135 5.34961 4.65039V4.21582C5.34961 3.53223 5.47005 2.93001 5.71094 2.40918C5.95182 1.88835 6.29525 1.48958 6.74121 1.21289C7.19043 0.932943 7.71126 0.792969 8.30371 0.792969C9.12402 0.792969 9.78483 1.0127 10.2861 1.45215C10.7874 1.8916 11.0771 2.50846 11.1553 3.30273H9.69043C9.65462 2.84375 9.52604 2.51172 9.30469 2.30664C9.08659 2.09831 8.75293 1.99414 8.30371 1.99414C7.81543 1.99414 7.44922 2.16992 7.20508 2.52148C6.96419 2.86979 6.84049 3.41178 6.83398 4.14746V4.68457C6.83398 5.4528 6.94954 6.01432 7.18066 6.36914C7.41504 6.72396 7.78288 6.90137 8.28418 6.90137C8.73665 6.90137 9.07357 6.79883 9.29492 6.59375C9.51953 6.38542 9.64811 6.06478 9.68066 5.63184H11.1455ZM16.6094 8H15.1934V3.85938H13.4258V8H12.0146V2.7168H16.6094V8ZM20.1201 8.09766C19.3454 8.09766 18.7139 7.86003 18.2256 7.38477C17.7406 6.90951 17.498 6.27637 17.498 5.48535V5.34863C17.498 4.81803 17.6006 4.3444 17.8057 3.92773C18.0107 3.50781 18.3005 3.18555 18.6748 2.96094C19.0524 2.73307 19.4821 2.61914 19.9639 2.61914C20.6865 2.61914 21.2546 2.84701 21.668 3.30273C22.0846 3.75846 22.293 4.40462 22.293 5.24121V5.81738H18.9287C18.9743 6.16243 19.111 6.43913 19.3389 6.64746C19.57 6.85579 19.8613 6.95996 20.2129 6.95996C20.7565 6.95996 21.1813 6.76302 21.4873 6.36914L22.1807 7.14551C21.9691 7.44499 21.6826 7.67936 21.3213 7.84863C20.96 8.01465 20.5596 8.09766 20.1201 8.09766ZM19.959 3.76172C19.679 3.76172 19.4512 3.85612 19.2754 4.04492C19.1029 4.23372 18.9922 4.50391 18.9434 4.85547H20.9062V4.74316C20.8997 4.43066 20.8151 4.18978 20.6523 4.02051C20.4896 3.84798 20.2585 3.76172 19.959 3.76172ZM23.0986 2.7168H24.5098V6.8623H26.2773V2.7168H27.6934V6.87207H28.4844L28.3867 9.56738H27.0732V8H23.0986V2.7168ZM32.376 2.7168H33.7871V8H32.376V4.73828L30.6084 8H29.1924V2.7168H30.6084V5.97363L32.376 2.7168ZM37.9277 8C37.8626 7.87305 37.8154 7.71517 37.7861 7.52637C37.4443 7.90723 37 8.09766 36.4531 8.09766C35.9355 8.09766 35.5059 7.94792 35.1641 7.64844C34.8255 7.34896 34.6562 6.97135 34.6562 6.51562C34.6562 5.95573 34.863 5.52604 35.2764 5.22656C35.693 4.92708 36.2936 4.77572 37.0781 4.77246H37.7275V4.46973C37.7275 4.22559 37.6641 4.03027 37.5371 3.88379C37.4134 3.7373 37.2165 3.66406 36.9463 3.66406C36.7087 3.66406 36.5215 3.72103 36.3848 3.83496C36.2513 3.94889 36.1846 4.10514 36.1846 4.30371H34.7734C34.7734 3.99772 34.8678 3.71452 35.0566 3.4541C35.2454 3.19368 35.5124 2.99023 35.8574 2.84375C36.2025 2.69401 36.5898 2.61914 37.0195 2.61914C37.6706 2.61914 38.1865 2.78353 38.5674 3.1123C38.9515 3.43783 39.1436 3.89681 39.1436 4.48926V6.7793C39.1468 7.2806 39.2168 7.65983 39.3535 7.91699V8H37.9277ZM36.7607 7.01855C36.9691 7.01855 37.1611 6.97298 37.3369 6.88184C37.5127 6.78743 37.6429 6.66211 37.7275 6.50586V5.59766H37.2002C36.4938 5.59766 36.1178 5.8418 36.0723 6.33008L36.0674 6.41309C36.0674 6.58887 36.1292 6.73372 36.2529 6.84766C36.3766 6.96159 36.5459 7.01855 36.7607 7.01855ZM44.8223 2.7168V8H43.4111V3.85938H42.166L42.0781 5.49023C42.0228 6.35938 41.8519 6.99251 41.5654 7.38965C41.279 7.78678 40.8525 7.99023 40.2861 8H39.8076L39.793 6.85254L39.9688 6.83789C40.2227 6.81836 40.4082 6.66862 40.5254 6.38867C40.6426 6.10872 40.7158 5.63184 40.7451 4.95801L40.8428 2.7168H44.8223ZM47.4199 4.26465H48.4307C48.8864 4.26465 49.2868 4.34115 49.6318 4.49414C49.9769 4.64714 50.2406 4.86686 50.4229 5.15332C50.6084 5.43652 50.7012 5.76693 50.7012 6.14453C50.7012 6.70117 50.4945 7.15039 50.0811 7.49219C49.6709 7.83073 49.111 8 48.4014 8H46.0039V2.7168H47.4199V4.26465ZM47.4199 5.39746V6.87207H48.4209C48.7008 6.87207 48.9157 6.80697 49.0654 6.67676C49.2152 6.54655 49.29 6.36914 49.29 6.14453C49.29 5.91667 49.2168 5.736 49.0703 5.60254C48.9238 5.46582 48.7074 5.39746 48.4209 5.39746H47.4199ZM56.0771 8H54.6611V5.96875H52.9082V8H51.4971V2.7168H52.9082V4.83594H54.6611V2.7168H56.0771V8ZM60.2324 8C60.1673 7.87305 60.1201 7.71517 60.0908 7.52637C59.749 7.90723 59.3047 8.09766 58.7578 8.09766C58.2402 8.09766 57.8105 7.94792 57.4688 7.64844C57.1302 7.34896 56.9609 6.97135 56.9609 6.51562C56.9609 5.95573 57.1676 5.52604 57.5811 5.22656C57.9977 4.92708 58.5983 4.77572 59.3828 4.77246H60.0322V4.46973C60.0322 4.22559 59.9688 4.03027 59.8418 3.88379C59.7181 3.7373 59.5212 3.66406 59.251 3.66406C59.0133 3.66406 58.8262 3.72103 58.6895 3.83496C58.556 3.94889 58.4893 4.10514 58.4893 4.30371H57.0781C57.0781 3.99772 57.1725 3.71452 57.3613 3.4541C57.5501 3.19368 57.8171 2.99023 58.1621 2.84375C58.5072 2.69401 58.8945 2.61914 59.3242 2.61914C59.9753 2.61914 60.4912 2.78353 60.8721 3.1123C61.2562 3.43783 61.4482 3.89681 61.4482 4.48926V6.7793C61.4515 7.2806 61.5215 7.65983 61.6582 7.91699V8H60.2324ZM59.0654 7.01855C59.2738 7.01855 59.4658 6.97298 59.6416 6.88184C59.8174 6.78743 59.9476 6.66211 60.0322 6.50586V5.59766H59.5049C58.7985 5.59766 58.4225 5.8418 58.377 6.33008L58.3721 6.41309C58.3721 6.58887 58.4339 6.73372 58.5576 6.84766C58.6813 6.96159 58.8506 7.01855 59.0654 7.01855ZM66.9365 2.7168V8H65.5303V6.17383H64.6367L63.6211 8H62.1904L63.3428 5.93457C63.027 5.78809 62.7829 5.58952 62.6104 5.33887C62.4411 5.08822 62.3564 4.80339 62.3564 4.48438C62.3564 3.97331 62.5534 3.55501 62.9473 3.22949C63.3444 2.90072 63.875 2.72982 64.5391 2.7168H66.9365ZM64.5635 5.1875H65.5303V3.84961H64.6123C64.3617 3.84961 64.1582 3.91634 64.002 4.0498C63.8457 4.18001 63.7676 4.33952 63.7676 4.52832C63.7676 4.71712 63.8424 4.87337 63.9922 4.99707C64.1419 5.12077 64.3324 5.18424 64.5635 5.1875ZM70.6182 2.7168H72.0293V6.8623H73.7969V2.7168H75.2129V6.87207H76.0039L75.9062 9.56738H74.5928V8H70.6182V2.7168ZM79.1436 8.09766C78.3688 8.09766 77.7373 7.86003 77.249 7.38477C76.764 6.90951 76.5215 6.27637 76.5215 5.48535V5.34863C76.5215 4.81803 76.624 4.3444 76.8291 3.92773C77.0342 3.50781 77.3239 3.18555 77.6982 2.96094C78.0758 2.73307 78.5055 2.61914 78.9873 2.61914C79.71 2.61914 80.278 2.84701 80.6914 3.30273C81.1081 3.75846 81.3164 4.40462 81.3164 5.24121V5.81738H77.9521C77.9977 6.16243 78.1344 6.43913 78.3623 6.64746C78.5934 6.85579 78.8848 6.95996 79.2363 6.95996C79.7799 6.95996 80.2048 6.76302 80.5107 6.36914L81.2041 7.14551C80.9925 7.44499 80.7061 7.67936 80.3447 7.84863C79.9834 8.01465 79.583 8.09766 79.1436 8.09766ZM78.9824 3.76172C78.7025 3.76172 78.4746 3.85612 78.2988 4.04492C78.1263 4.23372 78.0156 4.50391 77.9668 4.85547H79.9297V4.74316C79.9232 4.43066 79.8385 4.18978 79.6758 4.02051C79.513 3.84798 79.2819 3.76172 78.9824 3.76172ZM86.7021 8H85.2861V5.96875H83.5332V8H82.1221V2.7168H83.5332V4.83594H85.2861V2.7168H86.7021V8ZM90.8574 8C90.7923 7.87305 90.7451 7.71517 90.7158 7.52637C90.374 7.90723 89.9297 8.09766 89.3828 8.09766C88.8652 8.09766 88.4355 7.94792 88.0938 7.64844C87.7552 7.34896 87.5859 6.97135 87.5859 6.51562C87.5859 5.95573 87.7926 5.52604 88.2061 5.22656C88.6227 4.92708 89.2233 4.77572 90.0078 4.77246H90.6572V4.46973C90.6572 4.22559 90.5938 4.03027 90.4668 3.88379C90.3431 3.7373 90.1462 3.66406 89.876 3.66406C89.6383 3.66406 89.4512 3.72103 89.3145 3.83496C89.181 3.94889 89.1143 4.10514 89.1143 4.30371H87.7031C87.7031 3.99772 87.7975 3.71452 87.9863 3.4541C88.1751 3.19368 88.4421 2.99023 88.7871 2.84375C89.1322 2.69401 89.5195 2.61914 89.9492 2.61914C90.6003 2.61914 91.1162 2.78353 91.4971 3.1123C91.8812 3.43783 92.0732 3.89681 92.0732 4.48926V6.7793C92.0765 7.2806 92.1465 7.65983 92.2832 7.91699V8H90.8574ZM89.6904 7.01855C89.8988 7.01855 90.0908 6.97298 90.2666 6.88184C90.4424 6.78743 90.5726 6.66211 90.6572 6.50586V5.59766H90.1299C89.4235 5.59766 89.0475 5.8418 89.002 6.33008L88.9971 6.41309C88.9971 6.58887 89.0589 6.73372 89.1826 6.84766C89.3063 6.96159 89.4756 7.01855 89.6904 7.01855ZM95.7207 6.8623C96.0397 6.52376 96.2562 6.18848 96.3701 5.85645C96.484 5.52441 96.5475 5.05404 96.5605 4.44531L96.5996 2.7168H100.486V6.8623H101.248V9.58691H99.8369V8H96.707V9.58691H95.2666V6.8623H95.7207ZM97.3857 6.8623H99.0801V3.88379H97.9814L97.9717 4.51855C97.9424 5.48861 97.7471 6.26986 97.3857 6.8623ZM101.746 5.30957C101.746 4.78548 101.847 4.31836 102.049 3.9082C102.251 3.49805 102.54 3.18066 102.918 2.95605C103.299 2.73145 103.74 2.61914 104.241 2.61914C104.954 2.61914 105.535 2.83724 105.984 3.27344C106.437 3.70964 106.689 4.30208 106.741 5.05078L106.751 5.41211C106.751 6.22266 106.525 6.8737 106.072 7.36523C105.62 7.85352 105.013 8.09766 104.251 8.09766C103.489 8.09766 102.881 7.85352 102.425 7.36523C101.972 6.87695 101.746 6.21289 101.746 5.37305V5.30957ZM103.157 5.41211C103.157 5.91341 103.252 6.29753 103.44 6.56445C103.629 6.82812 103.899 6.95996 104.251 6.95996C104.593 6.95996 104.86 6.82975 105.052 6.56934C105.244 6.30566 105.34 5.88574 105.34 5.30957C105.34 4.81803 105.244 4.43717 105.052 4.16699C104.86 3.89681 104.59 3.76172 104.241 3.76172C103.896 3.76172 103.629 3.89681 103.44 4.16699C103.252 4.43392 103.157 4.84896 103.157 5.41211ZM111.487 3.82031H112.239C112.597 3.82031 112.863 3.73079 113.035 3.55176C113.208 3.37272 113.294 3.13509 113.294 2.83887C113.294 2.55241 113.208 2.32943 113.035 2.16992C112.866 2.01042 112.632 1.93066 112.332 1.93066C112.062 1.93066 111.836 2.00553 111.653 2.15527C111.471 2.30176 111.38 2.49382 111.38 2.73145H109.969C109.969 2.36035 110.068 2.02832 110.267 1.73535C110.468 1.43913 110.748 1.20801 111.106 1.04199C111.468 0.875977 111.865 0.792969 112.298 0.792969C113.05 0.792969 113.639 0.973633 114.065 1.33496C114.492 1.69303 114.705 2.18783 114.705 2.81934C114.705 3.14486 114.606 3.44434 114.407 3.71777C114.209 3.99121 113.948 4.20117 113.626 4.34766C114.026 4.49089 114.324 4.70573 114.52 4.99219C114.718 5.27865 114.817 5.61719 114.817 6.00781C114.817 6.63932 114.586 7.14551 114.124 7.52637C113.665 7.90723 113.056 8.09766 112.298 8.09766C111.588 8.09766 111.007 7.91048 110.555 7.53613C110.105 7.16178 109.881 6.66699 109.881 6.05176H111.292C111.292 6.31868 111.391 6.53678 111.59 6.70605C111.792 6.87533 112.039 6.95996 112.332 6.95996C112.667 6.95996 112.929 6.87207 113.118 6.69629C113.31 6.51725 113.406 6.28125 113.406 5.98828C113.406 5.27865 113.016 4.92383 112.234 4.92383H111.487V3.82031ZM120.579 5.06055C120.579 6.04362 120.376 6.79557 119.969 7.31641C119.562 7.83724 118.966 8.09766 118.182 8.09766C117.407 8.09766 116.814 7.84212 116.404 7.33105C115.994 6.81999 115.784 6.08757 115.774 5.13379V3.8252C115.774 2.83236 115.979 2.07878 116.39 1.56445C116.803 1.05013 117.397 0.792969 118.172 0.792969C118.947 0.792969 119.539 1.0485 119.949 1.55957C120.359 2.06738 120.569 2.79818 120.579 3.75195V5.06055ZM119.168 3.625C119.168 3.03581 119.087 2.60775 118.924 2.34082C118.764 2.07064 118.514 1.93555 118.172 1.93555C117.84 1.93555 117.594 2.06413 117.435 2.32129C117.278 2.5752 117.195 2.97396 117.186 3.51758V5.24609C117.186 5.82552 117.264 6.25684 117.42 6.54004C117.579 6.81999 117.833 6.95996 118.182 6.95996C118.527 6.95996 118.776 6.82487 118.929 6.55469C119.082 6.28451 119.161 5.87109 119.168 5.31445V3.625ZM127.269 2.7168H128.68V8H127.269V4.73828L125.501 8H124.085V2.7168H125.501V5.97363L127.269 2.7168ZM131.287 4.74316H132.049C132.153 4.08561 132.422 3.56803 132.854 3.19043C133.291 2.80957 133.839 2.61914 134.5 2.61914C135.213 2.61914 135.794 2.83724 136.243 3.27344C136.696 3.70964 136.948 4.30208 137 5.05078L137.01 5.41211C137.01 6.22266 136.784 6.8737 136.331 7.36523C135.879 7.85352 135.271 8.09766 134.51 8.09766C133.823 8.09766 133.26 7.89909 132.82 7.50195C132.384 7.10482 132.122 6.56608 132.034 5.88574H131.287V8H129.871V2.7168H131.287V4.74316ZM133.416 5.41211C133.416 5.91341 133.51 6.29753 133.699 6.56445C133.888 6.82812 134.158 6.95996 134.51 6.95996C134.858 6.95996 135.127 6.82812 135.315 6.56445C135.504 6.30078 135.599 5.88249 135.599 5.30957C135.599 4.81803 135.503 4.43717 135.311 4.16699C135.118 3.89681 134.848 3.76172 134.5 3.76172C134.155 3.76172 133.888 3.89681 133.699 4.16699C133.51 4.43392 133.416 4.84896 133.416 5.41211ZM142.454 8H141.038V5.96875H139.285V8H137.874V2.7168H139.285V4.83594H141.038V2.7168H142.454V8ZM147.952 2.7168V8H146.546V6.17383H145.652L144.637 8H143.206L144.358 5.93457C144.043 5.78809 143.799 5.58952 143.626 5.33887C143.457 5.08822 143.372 4.80339 143.372 4.48438C143.372 3.97331 143.569 3.55501 143.963 3.22949C144.36 2.90072 144.891 2.72982 145.555 2.7168H147.952ZM145.579 5.1875H146.546V3.84961H145.628C145.377 3.84961 145.174 3.91634 145.018 4.0498C144.861 4.18001 144.783 4.33952 144.783 4.52832C144.783 4.71712 144.858 4.87337 145.008 4.99707C145.158 5.12077 145.348 5.18424 145.579 5.1875Z" fill="white"/>
</svg>
